ISO-10303-21;
HEADER;
/* Generated by software containing ST-Developer
 * from STEP Tools, Inc. (www.steptools.com) 
 */

FILE_DESCRIPTION(
/* description */ (''),
/* implementation_level */ '2;1');

FILE_NAME(
/* name */ 'LED Line.step',
/* time_stamp */ '2026-09-27T15:50:29-07:00',
/* author */ (''),
/* organization */ (''),
/* preprocessor_version */ 'ST-DEVELOPER v20.2',
/* originating_system */ 'Autodesk Translation Framework v15.15.0.0',
/* authorisation */ '');

FILE_SCHEMA (('AUTOMOTIVE_DESIGN { 1 0 10303 214 3 1 1 }'));
ENDSEC;

DATA;
#10=MECHANICAL_DESIGN_GEOMETRIC_PRESENTATION_REPRESENTATION('',(#13),#890);
#11=SHAPE_REPRESENTATION_RELATIONSHIP('SRR','None',#897,#12);
#12=ADVANCED_BREP_SHAPE_REPRESENTATION('',(#14),#889);
#13=STYLED_ITEM('',(#906),#14);
#14=MANIFOLD_SOLID_BREP('Body2',#558);
#15=FACE_BOUND('',#70,.T.);
#16=FACE_BOUND('',#74,.T.);
#17=FACE_BOUND('',#76,.T.);
#18=FACE_OUTER_BOUND('',#46,.T.);
#19=FACE_OUTER_BOUND('',#47,.T.);
#20=FACE_OUTER_BOUND('',#48,.T.);
#21=FACE_OUTER_BOUND('',#49,.T.);
#22=FACE_OUTER_BOUND('',#50,.T.);
#23=FACE_OUTER_BOUND('',#51,.T.);
#24=FACE_OUTER_BOUND('',#52,.T.);
#25=FACE_OUTER_BOUND('',#53,.T.);
#26=FACE_OUTER_BOUND('',#54,.T.);
#27=FACE_OUTER_BOUND('',#55,.T.);
#28=FACE_OUTER_BOUND('',#56,.T.);
#29=FACE_OUTER_BOUND('',#57,.T.);
#30=FACE_OUTER_BOUND('',#58,.T.);
#31=FACE_OUTER_BOUND('',#59,.T.);
#32=FACE_OUTER_BOUND('',#60,.T.);
#33=FACE_OUTER_BOUND('',#61,.T.);
#34=FACE_OUTER_BOUND('',#62,.T.);
#35=FACE_OUTER_BOUND('',#63,.T.);
#36=FACE_OUTER_BOUND('',#64,.T.);
#37=FACE_OUTER_BOUND('',#65,.T.);
#38=FACE_OUTER_BOUND('',#66,.T.);
#39=FACE_OUTER_BOUND('',#67,.T.);
#40=FACE_OUTER_BOUND('',#68,.T.);
#41=FACE_OUTER_BOUND('',#69,.T.);
#42=FACE_OUTER_BOUND('',#71,.T.);
#43=FACE_OUTER_BOUND('',#72,.T.);
#44=FACE_OUTER_BOUND('',#73,.T.);
#45=FACE_OUTER_BOUND('',#75,.T.);
#46=EDGE_LOOP('',(#352,#353,#354,#355));
#47=EDGE_LOOP('',(#356,#357,#358,#359));
#48=EDGE_LOOP('',(#360,#361,#362,#363));
#49=EDGE_LOOP('',(#364,#365,#366,#367));
#50=EDGE_LOOP('',(#368,#369,#370,#371));
#51=EDGE_LOOP('',(#372,#373,#374,#375));
#52=EDGE_LOOP('',(#376,#377,#378,#379));
#53=EDGE_LOOP('',(#380,#381,#382,#383));
#54=EDGE_LOOP('',(#384,#385,#386,#387));
#55=EDGE_LOOP('',(#388,#389,#390,#391));
#56=EDGE_LOOP('',(#392,#393,#394,#395));
#57=EDGE_LOOP('',(#396,#397,#398,#399));
#58=EDGE_LOOP('',(#400,#401,#402,#403));
#59=EDGE_LOOP('',(#404,#405,#406,#407));
#60=EDGE_LOOP('',(#408,#409,#410,#411));
#61=EDGE_LOOP('',(#412,#413,#414,#415));
#62=EDGE_LOOP('',(#416,#417,#418,#419));
#63=EDGE_LOOP('',(#420,#421,#422,#423));
#64=EDGE_LOOP('',(#424,#425,#426,#427));
#65=EDGE_LOOP('',(#428,#429,#430,#431));
#66=EDGE_LOOP('',(#432,#433,#434,#435));
#67=EDGE_LOOP('',(#436,#437,#438,#439));
#68=EDGE_LOOP('',(#440,#441,#442,#443));
#69=EDGE_LOOP('',(#444,#445,#446,#447));
#70=EDGE_LOOP('',(#448,#449,#450,#451));
#71=EDGE_LOOP('',(#452,#453,#454,#455));
#72=EDGE_LOOP('',(#456,#457,#458,#459));
#73=EDGE_LOOP('',(#460,#461,#462,#463,#464,#465,#466,#467,#468,#469,#470,
#471,#472,#473));
#74=EDGE_LOOP('',(#474,#475,#476,#477,#478,#479,#480));
#75=EDGE_LOOP('',(#481,#482,#483,#484,#485,#486,#487,#488,#489,#490,#491,
#492,#493,#494));
#76=EDGE_LOOP('',(#495,#496,#497,#498,#499,#500,#501));
#77=LINE('',#737,#152);
#78=LINE('',#739,#153);
#79=LINE('',#741,#154);
#80=LINE('',#742,#155);
#81=LINE('',#745,#156);
#82=LINE('',#747,#157);
#83=LINE('',#748,#158);
#84=LINE('',#751,#159);
#85=LINE('',#753,#160);
#86=LINE('',#754,#161);
#87=LINE('',#756,#162);
#88=LINE('',#757,#163);
#89=LINE('',#762,#164);
#90=LINE('',#764,#165);
#91=LINE('',#766,#166);
#92=LINE('',#767,#167);
#93=LINE('',#770,#168);
#94=LINE('',#772,#169);
#95=LINE('',#773,#170);
#96=LINE('',#776,#171);
#97=LINE('',#778,#172);
#98=LINE('',#779,#173);
#99=LINE('',#782,#174);
#100=LINE('',#784,#175);
#101=LINE('',#785,#176);
#102=LINE('',#788,#177);
#103=LINE('',#790,#178);
#104=LINE('',#791,#179);
#105=LINE('',#794,#180);
#106=LINE('',#796,#181);
#107=LINE('',#797,#182);
#108=LINE('',#799,#183);
#109=LINE('',#800,#184);
#110=LINE('',#804,#185);
#111=LINE('',#806,#186);
#112=LINE('',#808,#187);
#113=LINE('',#809,#188);
#114=LINE('',#812,#189);
#115=LINE('',#814,#190);
#116=LINE('',#815,#191);
#117=LINE('',#818,#192);
#118=LINE('',#820,#193);
#119=LINE('',#821,#194);
#120=LINE('',#824,#195);
#121=LINE('',#826,#196);
#122=LINE('',#827,#197);
#123=LINE('',#830,#198);
#124=LINE('',#832,#199);
#125=LINE('',#833,#200);
#126=LINE('',#836,#201);
#127=LINE('',#838,#202);
#128=LINE('',#839,#203);
#129=LINE('',#842,#204);
#130=LINE('',#844,#205);
#131=LINE('',#845,#206);
#132=LINE('',#848,#207);
#133=LINE('',#850,#208);
#134=LINE('',#851,#209);
#135=LINE('',#854,#210);
#136=LINE('',#856,#211);
#137=LINE('',#857,#212);
#138=LINE('',#860,#213);
#139=LINE('',#862,#214);
#140=LINE('',#863,#215);
#141=LINE('',#866,#216);
#142=LINE('',#868,#217);
#143=LINE('',#869,#218);
#144=LINE('',#872,#219);
#145=LINE('',#874,#220);
#146=LINE('',#875,#221);
#147=LINE('',#878,#222);
#148=LINE('',#880,#223);
#149=LINE('',#881,#224);
#150=LINE('',#883,#225);
#151=LINE('',#884,#226);
#152=VECTOR('',#604,10.);
#153=VECTOR('',#605,10.);
#154=VECTOR('',#606,10.);
#155=VECTOR('',#607,10.);
#156=VECTOR('',#610,10.);
#157=VECTOR('',#611,10.);
#158=VECTOR('',#612,10.);
#159=VECTOR('',#615,10.);
#160=VECTOR('',#616,10.);
#161=VECTOR('',#617,10.);
#162=VECTOR('',#620,10.);
#163=VECTOR('',#621,10.);
#164=VECTOR('',#626,10.);
#165=VECTOR('',#627,10.);
#166=VECTOR('',#628,10.);
#167=VECTOR('',#629,10.);
#168=VECTOR('',#632,10.);
#169=VECTOR('',#633,10.);
#170=VECTOR('',#634,10.);
#171=VECTOR('',#637,10.);
#172=VECTOR('',#638,10.);
#173=VECTOR('',#639,10.);
#174=VECTOR('',#642,10.);
#175=VECTOR('',#643,10.);
#176=VECTOR('',#644,10.);
#177=VECTOR('',#647,10.);
#178=VECTOR('',#648,10.);
#179=VECTOR('',#649,10.);
#180=VECTOR('',#652,10.);
#181=VECTOR('',#653,10.);
#182=VECTOR('',#654,10.);
#183=VECTOR('',#657,10.);
#184=VECTOR('',#658,10.);
#185=VECTOR('',#661,10.);
#186=VECTOR('',#662,10.);
#187=VECTOR('',#663,10.);
#188=VECTOR('',#664,10.);
#189=VECTOR('',#667,10.);
#190=VECTOR('',#668,10.);
#191=VECTOR('',#669,10.);
#192=VECTOR('',#672,10.);
#193=VECTOR('',#673,10.);
#194=VECTOR('',#674,10.);
#195=VECTOR('',#677,10.);
#196=VECTOR('',#678,10.);
#197=VECTOR('',#679,10.);
#198=VECTOR('',#682,10.);
#199=VECTOR('',#683,10.);
#200=VECTOR('',#684,10.);
#201=VECTOR('',#687,10.);
#202=VECTOR('',#688,10.);
#203=VECTOR('',#689,10.);
#204=VECTOR('',#692,10.);
#205=VECTOR('',#693,10.);
#206=VECTOR('',#694,10.);
#207=VECTOR('',#697,10.);
#208=VECTOR('',#698,10.);
#209=VECTOR('',#699,10.);
#210=VECTOR('',#702,10.);
#211=VECTOR('',#703,10.);
#212=VECTOR('',#704,10.);
#213=VECTOR('',#707,10.);
#214=VECTOR('',#708,10.);
#215=VECTOR('',#709,10.);
#216=VECTOR('',#712,10.);
#217=VECTOR('',#713,10.);
#218=VECTOR('',#714,10.);
#219=VECTOR('',#717,10.);
#220=VECTOR('',#718,10.);
#221=VECTOR('',#719,10.);
#222=VECTOR('',#722,10.);
#223=VECTOR('',#723,10.);
#224=VECTOR('',#724,10.);
#225=VECTOR('',#727,10.);
#226=VECTOR('',#728,10.);
#227=VERTEX_POINT('',#735);
#228=VERTEX_POINT('',#736);
#229=VERTEX_POINT('',#738);
#230=VERTEX_POINT('',#740);
#231=VERTEX_POINT('',#744);
#232=VERTEX_POINT('',#746);
#233=VERTEX_POINT('',#750);
#234=VERTEX_POINT('',#752);
#235=VERTEX_POINT('',#760);
#236=VERTEX_POINT('',#761);
#237=VERTEX_POINT('',#763);
#238=VERTEX_POINT('',#765);
#239=VERTEX_POINT('',#769);
#240=VERTEX_POINT('',#771);
#241=VERTEX_POINT('',#775);
#242=VERTEX_POINT('',#777);
#243=VERTEX_POINT('',#781);
#244=VERTEX_POINT('',#783);
#245=VERTEX_POINT('',#787);
#246=VERTEX_POINT('',#789);
#247=VERTEX_POINT('',#793);
#248=VERTEX_POINT('',#795);
#249=VERTEX_POINT('',#802);
#250=VERTEX_POINT('',#803);
#251=VERTEX_POINT('',#805);
#252=VERTEX_POINT('',#807);
#253=VERTEX_POINT('',#811);
#254=VERTEX_POINT('',#813);
#255=VERTEX_POINT('',#817);
#256=VERTEX_POINT('',#819);
#257=VERTEX_POINT('',#823);
#258=VERTEX_POINT('',#825);
#259=VERTEX_POINT('',#829);
#260=VERTEX_POINT('',#831);
#261=VERTEX_POINT('',#835);
#262=VERTEX_POINT('',#837);
#263=VERTEX_POINT('',#841);
#264=VERTEX_POINT('',#843);
#265=VERTEX_POINT('',#847);
#266=VERTEX_POINT('',#849);
#267=VERTEX_POINT('',#853);
#268=VERTEX_POINT('',#855);
#269=VERTEX_POINT('',#859);
#270=VERTEX_POINT('',#861);
#271=VERTEX_POINT('',#865);
#272=VERTEX_POINT('',#867);
#273=VERTEX_POINT('',#871);
#274=VERTEX_POINT('',#873);
#275=VERTEX_POINT('',#877);
#276=VERTEX_POINT('',#879);
#277=EDGE_CURVE('',#227,#228,#77,.T.);
#278=EDGE_CURVE('',#227,#229,#78,.T.);
#279=EDGE_CURVE('',#229,#230,#79,.T.);
#280=EDGE_CURVE('',#228,#230,#80,.T.);
#281=EDGE_CURVE('',#231,#227,#81,.T.);
#282=EDGE_CURVE('',#231,#232,#82,.T.);
#283=EDGE_CURVE('',#232,#229,#83,.T.);
#284=EDGE_CURVE('',#233,#231,#84,.T.);
#285=EDGE_CURVE('',#233,#234,#85,.T.);
#286=EDGE_CURVE('',#234,#232,#86,.T.);
#287=EDGE_CURVE('',#228,#233,#87,.T.);
#288=EDGE_CURVE('',#230,#234,#88,.T.);
#289=EDGE_CURVE('',#235,#236,#89,.T.);
#290=EDGE_CURVE('',#236,#237,#90,.T.);
#291=EDGE_CURVE('',#238,#237,#91,.T.);
#292=EDGE_CURVE('',#235,#238,#92,.T.);
#293=EDGE_CURVE('',#239,#235,#93,.T.);
#294=EDGE_CURVE('',#240,#238,#94,.T.);
#295=EDGE_CURVE('',#239,#240,#95,.T.);
#296=EDGE_CURVE('',#241,#239,#96,.T.);
#297=EDGE_CURVE('',#242,#240,#97,.T.);
#298=EDGE_CURVE('',#241,#242,#98,.T.);
#299=EDGE_CURVE('',#243,#241,#99,.T.);
#300=EDGE_CURVE('',#244,#242,#100,.T.);
#301=EDGE_CURVE('',#243,#244,#101,.T.);
#302=EDGE_CURVE('',#245,#243,#102,.T.);
#303=EDGE_CURVE('',#246,#244,#103,.T.);
#304=EDGE_CURVE('',#245,#246,#104,.T.);
#305=EDGE_CURVE('',#247,#245,#105,.T.);
#306=EDGE_CURVE('',#248,#246,#106,.T.);
#307=EDGE_CURVE('',#247,#248,#107,.T.);
#308=EDGE_CURVE('',#236,#247,#108,.T.);
#309=EDGE_CURVE('',#237,#248,#109,.T.);
#310=EDGE_CURVE('',#249,#250,#110,.T.);
#311=EDGE_CURVE('',#250,#251,#111,.T.);
#312=EDGE_CURVE('',#252,#251,#112,.T.);
#313=EDGE_CURVE('',#249,#252,#113,.T.);
#314=EDGE_CURVE('',#249,#253,#114,.T.);
#315=EDGE_CURVE('',#254,#252,#115,.T.);
#316=EDGE_CURVE('',#253,#254,#116,.T.);
#317=EDGE_CURVE('',#255,#253,#117,.T.);
#318=EDGE_CURVE('',#256,#254,#118,.T.);
#319=EDGE_CURVE('',#255,#256,#119,.T.);
#320=EDGE_CURVE('',#257,#255,#120,.T.);
#321=EDGE_CURVE('',#258,#256,#121,.T.);
#322=EDGE_CURVE('',#257,#258,#122,.T.);
#323=EDGE_CURVE('',#259,#257,#123,.T.);
#324=EDGE_CURVE('',#260,#258,#124,.T.);
#325=EDGE_CURVE('',#259,#260,#125,.T.);
#326=EDGE_CURVE('',#259,#261,#126,.T.);
#327=EDGE_CURVE('',#262,#260,#127,.T.);
#328=EDGE_CURVE('',#261,#262,#128,.T.);
#329=EDGE_CURVE('',#263,#261,#129,.T.);
#330=EDGE_CURVE('',#264,#262,#130,.T.);
#331=EDGE_CURVE('',#263,#264,#131,.T.);
#332=EDGE_CURVE('',#265,#263,#132,.T.);
#333=EDGE_CURVE('',#266,#264,#133,.T.);
#334=EDGE_CURVE('',#265,#266,#134,.T.);
#335=EDGE_CURVE('',#267,#265,#135,.T.);
#336=EDGE_CURVE('',#268,#266,#136,.T.);
#337=EDGE_CURVE('',#267,#268,#137,.T.);
#338=EDGE_CURVE('',#267,#269,#138,.T.);
#339=EDGE_CURVE('',#270,#268,#139,.T.);
#340=EDGE_CURVE('',#269,#270,#140,.T.);
#341=EDGE_CURVE('',#271,#269,#141,.T.);
#342=EDGE_CURVE('',#272,#270,#142,.T.);
#343=EDGE_CURVE('',#271,#272,#143,.T.);
#344=EDGE_CURVE('',#273,#271,#144,.T.);
#345=EDGE_CURVE('',#274,#272,#145,.T.);
#346=EDGE_CURVE('',#273,#274,#146,.T.);
#347=EDGE_CURVE('',#273,#275,#147,.T.);
#348=EDGE_CURVE('',#276,#274,#148,.T.);
#349=EDGE_CURVE('',#275,#276,#149,.T.);
#350=EDGE_CURVE('',#250,#275,#150,.T.);
#351=EDGE_CURVE('',#251,#276,#151,.T.);
#352=ORIENTED_EDGE('',*,*,#277,.F.);
#353=ORIENTED_EDGE('',*,*,#278,.T.);
#354=ORIENTED_EDGE('',*,*,#279,.T.);
#355=ORIENTED_EDGE('',*,*,#280,.F.);
#356=ORIENTED_EDGE('',*,*,#281,.F.);
#357=ORIENTED_EDGE('',*,*,#282,.T.);
#358=ORIENTED_EDGE('',*,*,#283,.T.);
#359=ORIENTED_EDGE('',*,*,#278,.F.);
#360=ORIENTED_EDGE('',*,*,#284,.F.);
#361=ORIENTED_EDGE('',*,*,#285,.T.);
#362=ORIENTED_EDGE('',*,*,#286,.T.);
#363=ORIENTED_EDGE('',*,*,#282,.F.);
#364=ORIENTED_EDGE('',*,*,#287,.F.);
#365=ORIENTED_EDGE('',*,*,#280,.T.);
#366=ORIENTED_EDGE('',*,*,#288,.T.);
#367=ORIENTED_EDGE('',*,*,#285,.F.);
#368=ORIENTED_EDGE('',*,*,#288,.F.);
#369=ORIENTED_EDGE('',*,*,#279,.F.);
#370=ORIENTED_EDGE('',*,*,#283,.F.);
#371=ORIENTED_EDGE('',*,*,#286,.F.);
#372=ORIENTED_EDGE('',*,*,#289,.T.);
#373=ORIENTED_EDGE('',*,*,#290,.T.);
#374=ORIENTED_EDGE('',*,*,#291,.F.);
#375=ORIENTED_EDGE('',*,*,#292,.F.);
#376=ORIENTED_EDGE('',*,*,#293,.T.);
#377=ORIENTED_EDGE('',*,*,#292,.T.);
#378=ORIENTED_EDGE('',*,*,#294,.F.);
#379=ORIENTED_EDGE('',*,*,#295,.F.);
#380=ORIENTED_EDGE('',*,*,#296,.T.);
#381=ORIENTED_EDGE('',*,*,#295,.T.);
#382=ORIENTED_EDGE('',*,*,#297,.F.);
#383=ORIENTED_EDGE('',*,*,#298,.F.);
#384=ORIENTED_EDGE('',*,*,#299,.T.);
#385=ORIENTED_EDGE('',*,*,#298,.T.);
#386=ORIENTED_EDGE('',*,*,#300,.F.);
#387=ORIENTED_EDGE('',*,*,#301,.F.);
#388=ORIENTED_EDGE('',*,*,#302,.T.);
#389=ORIENTED_EDGE('',*,*,#301,.T.);
#390=ORIENTED_EDGE('',*,*,#303,.F.);
#391=ORIENTED_EDGE('',*,*,#304,.F.);
#392=ORIENTED_EDGE('',*,*,#305,.T.);
#393=ORIENTED_EDGE('',*,*,#304,.T.);
#394=ORIENTED_EDGE('',*,*,#306,.F.);
#395=ORIENTED_EDGE('',*,*,#307,.F.);
#396=ORIENTED_EDGE('',*,*,#308,.T.);
#397=ORIENTED_EDGE('',*,*,#307,.T.);
#398=ORIENTED_EDGE('',*,*,#309,.F.);
#399=ORIENTED_EDGE('',*,*,#290,.F.);
#400=ORIENTED_EDGE('',*,*,#310,.T.);
#401=ORIENTED_EDGE('',*,*,#311,.T.);
#402=ORIENTED_EDGE('',*,*,#312,.F.);
#403=ORIENTED_EDGE('',*,*,#313,.F.);
#404=ORIENTED_EDGE('',*,*,#314,.F.);
#405=ORIENTED_EDGE('',*,*,#313,.T.);
#406=ORIENTED_EDGE('',*,*,#315,.F.);
#407=ORIENTED_EDGE('',*,*,#316,.F.);
#408=ORIENTED_EDGE('',*,*,#317,.T.);
#409=ORIENTED_EDGE('',*,*,#316,.T.);
#410=ORIENTED_EDGE('',*,*,#318,.F.);
#411=ORIENTED_EDGE('',*,*,#319,.F.);
#412=ORIENTED_EDGE('',*,*,#320,.T.);
#413=ORIENTED_EDGE('',*,*,#319,.T.);
#414=ORIENTED_EDGE('',*,*,#321,.F.);
#415=ORIENTED_EDGE('',*,*,#322,.F.);
#416=ORIENTED_EDGE('',*,*,#323,.T.);
#417=ORIENTED_EDGE('',*,*,#322,.T.);
#418=ORIENTED_EDGE('',*,*,#324,.F.);
#419=ORIENTED_EDGE('',*,*,#325,.F.);
#420=ORIENTED_EDGE('',*,*,#326,.F.);
#421=ORIENTED_EDGE('',*,*,#325,.T.);
#422=ORIENTED_EDGE('',*,*,#327,.F.);
#423=ORIENTED_EDGE('',*,*,#328,.F.);
#424=ORIENTED_EDGE('',*,*,#329,.T.);
#425=ORIENTED_EDGE('',*,*,#328,.T.);
#426=ORIENTED_EDGE('',*,*,#330,.F.);
#427=ORIENTED_EDGE('',*,*,#331,.F.);
#428=ORIENTED_EDGE('',*,*,#332,.T.);
#429=ORIENTED_EDGE('',*,*,#331,.T.);
#430=ORIENTED_EDGE('',*,*,#333,.F.);
#431=ORIENTED_EDGE('',*,*,#334,.F.);
#432=ORIENTED_EDGE('',*,*,#335,.T.);
#433=ORIENTED_EDGE('',*,*,#334,.T.);
#434=ORIENTED_EDGE('',*,*,#336,.F.);
#435=ORIENTED_EDGE('',*,*,#337,.F.);
#436=ORIENTED_EDGE('',*,*,#338,.F.);
#437=ORIENTED_EDGE('',*,*,#337,.T.);
#438=ORIENTED_EDGE('',*,*,#339,.F.);
#439=ORIENTED_EDGE('',*,*,#340,.F.);
#440=ORIENTED_EDGE('',*,*,#341,.T.);
#441=ORIENTED_EDGE('',*,*,#340,.T.);
#442=ORIENTED_EDGE('',*,*,#342,.F.);
#443=ORIENTED_EDGE('',*,*,#343,.F.);
#444=ORIENTED_EDGE('',*,*,#344,.T.);
#445=ORIENTED_EDGE('',*,*,#343,.T.);
#446=ORIENTED_EDGE('',*,*,#345,.F.);
#447=ORIENTED_EDGE('',*,*,#346,.F.);
#448=ORIENTED_EDGE('',*,*,#277,.T.);
#449=ORIENTED_EDGE('',*,*,#287,.T.);
#450=ORIENTED_EDGE('',*,*,#284,.T.);
#451=ORIENTED_EDGE('',*,*,#281,.T.);
#452=ORIENTED_EDGE('',*,*,#347,.F.);
#453=ORIENTED_EDGE('',*,*,#346,.T.);
#454=ORIENTED_EDGE('',*,*,#348,.F.);
#455=ORIENTED_EDGE('',*,*,#349,.F.);
#456=ORIENTED_EDGE('',*,*,#350,.T.);
#457=ORIENTED_EDGE('',*,*,#349,.T.);
#458=ORIENTED_EDGE('',*,*,#351,.F.);
#459=ORIENTED_EDGE('',*,*,#311,.F.);
#460=ORIENTED_EDGE('',*,*,#351,.T.);
#461=ORIENTED_EDGE('',*,*,#348,.T.);
#462=ORIENTED_EDGE('',*,*,#345,.T.);
#463=ORIENTED_EDGE('',*,*,#342,.T.);
#464=ORIENTED_EDGE('',*,*,#339,.T.);
#465=ORIENTED_EDGE('',*,*,#336,.T.);
#466=ORIENTED_EDGE('',*,*,#333,.T.);
#467=ORIENTED_EDGE('',*,*,#330,.T.);
#468=ORIENTED_EDGE('',*,*,#327,.T.);
#469=ORIENTED_EDGE('',*,*,#324,.T.);
#470=ORIENTED_EDGE('',*,*,#321,.T.);
#471=ORIENTED_EDGE('',*,*,#318,.T.);
#472=ORIENTED_EDGE('',*,*,#315,.T.);
#473=ORIENTED_EDGE('',*,*,#312,.T.);
#474=ORIENTED_EDGE('',*,*,#309,.T.);
#475=ORIENTED_EDGE('',*,*,#306,.T.);
#476=ORIENTED_EDGE('',*,*,#303,.T.);
#477=ORIENTED_EDGE('',*,*,#300,.T.);
#478=ORIENTED_EDGE('',*,*,#297,.T.);
#479=ORIENTED_EDGE('',*,*,#294,.T.);
#480=ORIENTED_EDGE('',*,*,#291,.T.);
#481=ORIENTED_EDGE('',*,*,#350,.F.);
#482=ORIENTED_EDGE('',*,*,#310,.F.);
#483=ORIENTED_EDGE('',*,*,#314,.T.);
#484=ORIENTED_EDGE('',*,*,#317,.F.);
#485=ORIENTED_EDGE('',*,*,#320,.F.);
#486=ORIENTED_EDGE('',*,*,#323,.F.);
#487=ORIENTED_EDGE('',*,*,#326,.T.);
#488=ORIENTED_EDGE('',*,*,#329,.F.);
#489=ORIENTED_EDGE('',*,*,#332,.F.);
#490=ORIENTED_EDGE('',*,*,#335,.F.);
#491=ORIENTED_EDGE('',*,*,#338,.T.);
#492=ORIENTED_EDGE('',*,*,#341,.F.);
#493=ORIENTED_EDGE('',*,*,#344,.F.);
#494=ORIENTED_EDGE('',*,*,#347,.T.);
#495=ORIENTED_EDGE('',*,*,#308,.F.);
#496=ORIENTED_EDGE('',*,*,#289,.F.);
#497=ORIENTED_EDGE('',*,*,#293,.F.);
#498=ORIENTED_EDGE('',*,*,#296,.F.);
#499=ORIENTED_EDGE('',*,*,#299,.F.);
#500=ORIENTED_EDGE('',*,*,#302,.F.);
#501=ORIENTED_EDGE('',*,*,#305,.F.);
#502=PLANE('',#572);
#503=PLANE('',#573);
#504=PLANE('',#574);
#505=PLANE('',#575);
#506=PLANE('',#576);
#507=PLANE('',#577);
#508=PLANE('',#578);
#509=PLANE('',#579);
#510=PLANE('',#580);
#511=PLANE('',#581);
#512=PLANE('',#582);
#513=PLANE('',#583);
#514=PLANE('',#584);
#515=PLANE('',#585);
#516=PLANE('',#586);
#517=PLANE('',#587);
#518=PLANE('',#588);
#519=PLANE('',#589);
#520=PLANE('',#590);
#521=PLANE('',#591);
#522=PLANE('',#592);
#523=PLANE('',#593);
#524=PLANE('',#594);
#525=PLANE('',#595);
#526=PLANE('',#596);
#527=PLANE('',#597);
#528=PLANE('',#598);
#529=PLANE('',#599);
#530=ADVANCED_FACE('',(#18),#502,.F.);
#531=ADVANCED_FACE('',(#19),#503,.F.);
#532=ADVANCED_FACE('',(#20),#504,.F.);
#533=ADVANCED_FACE('',(#21),#505,.F.);
#534=ADVANCED_FACE('',(#22),#506,.F.);
#535=ADVANCED_FACE('',(#23),#507,.T.);
#536=ADVANCED_FACE('',(#24),#508,.T.);
#537=ADVANCED_FACE('',(#25),#509,.T.);
#538=ADVANCED_FACE('',(#26),#510,.T.);
#539=ADVANCED_FACE('',(#27),#511,.T.);
#540=ADVANCED_FACE('',(#28),#512,.T.);
#541=ADVANCED_FACE('',(#29),#513,.T.);
#542=ADVANCED_FACE('',(#30),#514,.T.);
#543=ADVANCED_FACE('',(#31),#515,.T.);
#544=ADVANCED_FACE('',(#32),#516,.T.);
#545=ADVANCED_FACE('',(#33),#517,.T.);
#546=ADVANCED_FACE('',(#34),#518,.T.);
#547=ADVANCED_FACE('',(#35),#519,.T.);
#548=ADVANCED_FACE('',(#36),#520,.T.);
#549=ADVANCED_FACE('',(#37),#521,.T.);
#550=ADVANCED_FACE('',(#38),#522,.T.);
#551=ADVANCED_FACE('',(#39),#523,.T.);
#552=ADVANCED_FACE('',(#40),#524,.T.);
#553=ADVANCED_FACE('',(#41,#15),#525,.T.);
#554=ADVANCED_FACE('',(#42),#526,.T.);
#555=ADVANCED_FACE('',(#43),#527,.T.);
#556=ADVANCED_FACE('',(#44,#16),#528,.T.);
#557=ADVANCED_FACE('',(#45,#17),#529,.F.);
#558=CLOSED_SHELL('',(#530,#531,#532,#533,#534,#535,#536,#537,#538,#539,
#540,#541,#542,#543,#544,#545,#546,#547,#548,#549,#550,#551,#552,#553,#554,
#555,#556,#557));
#559=DERIVED_UNIT_ELEMENT(#561,1.);
#560=DERIVED_UNIT_ELEMENT(#892,-3.);
#561=(
MASS_UNIT()
NAMED_UNIT(*)
SI_UNIT(.KILO.,.GRAM.)
);
#562=DERIVED_UNIT((#559,#560));
#563=MEASURE_REPRESENTATION_ITEM('density measure',
POSITIVE_RATIO_MEASURE(7850.),#562);
#564=PROPERTY_DEFINITION_REPRESENTATION(#569,#566);
#565=PROPERTY_DEFINITION_REPRESENTATION(#570,#567);
#566=REPRESENTATION('material name',(#568),#889);
#567=REPRESENTATION('density',(#563),#889);
#568=DESCRIPTIVE_REPRESENTATION_ITEM('Steel','Steel');
#569=PROPERTY_DEFINITION('material property','material name',#899);
#570=PROPERTY_DEFINITION('material property','density of part',#899);
#571=AXIS2_PLACEMENT_3D('',#733,#600,#601);
#572=AXIS2_PLACEMENT_3D('',#734,#602,#603);
#573=AXIS2_PLACEMENT_3D('',#743,#608,#609);
#574=AXIS2_PLACEMENT_3D('',#749,#613,#614);
#575=AXIS2_PLACEMENT_3D('',#755,#618,#619);
#576=AXIS2_PLACEMENT_3D('',#758,#622,#623);
#577=AXIS2_PLACEMENT_3D('',#759,#624,#625);
#578=AXIS2_PLACEMENT_3D('',#768,#630,#631);
#579=AXIS2_PLACEMENT_3D('',#774,#635,#636);
#580=AXIS2_PLACEMENT_3D('',#780,#640,#641);
#581=AXIS2_PLACEMENT_3D('',#786,#645,#646);
#582=AXIS2_PLACEMENT_3D('',#792,#650,#651);
#583=AXIS2_PLACEMENT_3D('',#798,#655,#656);
#584=AXIS2_PLACEMENT_3D('',#801,#659,#660);
#585=AXIS2_PLACEMENT_3D('',#810,#665,#666);
#586=AXIS2_PLACEMENT_3D('',#816,#670,#671);
#587=AXIS2_PLACEMENT_3D('',#822,#675,#676);
#588=AXIS2_PLACEMENT_3D('',#828,#680,#681);
#589=AXIS2_PLACEMENT_3D('',#834,#685,#686);
#590=AXIS2_PLACEMENT_3D('',#840,#690,#691);
#591=AXIS2_PLACEMENT_3D('',#846,#695,#696);
#592=AXIS2_PLACEMENT_3D('',#852,#700,#701);
#593=AXIS2_PLACEMENT_3D('',#858,#705,#706);
#594=AXIS2_PLACEMENT_3D('',#864,#710,#711);
#595=AXIS2_PLACEMENT_3D('',#870,#715,#716);
#596=AXIS2_PLACEMENT_3D('',#876,#720,#721);
#597=AXIS2_PLACEMENT_3D('',#882,#725,#726);
#598=AXIS2_PLACEMENT_3D('',#885,#729,#730);
#599=AXIS2_PLACEMENT_3D('',#886,#731,#732);
#600=DIRECTION('axis',(0.,0.,1.));
#601=DIRECTION('refdir',(1.,0.,0.));
#602=DIRECTION('center_axis',(0.,-1.,0.));
#603=DIRECTION('ref_axis',(-1.,0.,0.));
#604=DIRECTION('',(-1.,0.,1.77635683940025E-16));
#605=DIRECTION('',(0.,0.,-1.));
#606=DIRECTION('',(-1.,0.,0.));
#607=DIRECTION('',(0.,0.,-1.));
#608=DIRECTION('center_axis',(1.,0.,0.));
#609=DIRECTION('ref_axis',(0.,-1.,0.));
#610=DIRECTION('',(0.,-1.,0.));
#611=DIRECTION('',(0.,0.,-1.));
#612=DIRECTION('',(0.,-1.,0.));
#613=DIRECTION('center_axis',(0.,1.,0.));
#614=DIRECTION('ref_axis',(1.,0.,0.));
#615=DIRECTION('',(1.,0.,-1.77635683940025E-16));
#616=DIRECTION('',(0.,0.,-1.));
#617=DIRECTION('',(1.,0.,0.));
#618=DIRECTION('center_axis',(-1.,0.,0.));
#619=DIRECTION('ref_axis',(0.,1.,0.));
#620=DIRECTION('',(0.,1.,0.));
#621=DIRECTION('',(0.,1.,0.));
#622=DIRECTION('center_axis',(0.,0.,-1.));
#623=DIRECTION('ref_axis',(-1.,0.,0.));
#624=DIRECTION('center_axis',(0.,0.,-1.));
#625=DIRECTION('ref_axis',(-1.,0.,0.));
#626=DIRECTION('',(-1.,0.,0.));
#627=DIRECTION('',(0.,1.,0.));
#628=DIRECTION('',(-1.,0.,0.));
#629=DIRECTION('',(0.,1.,0.));
#630=DIRECTION('center_axis',(1.29575308349001E-8,0.,-1.));
#631=DIRECTION('ref_axis',(-1.,0.,-1.29575308349001E-8));
#632=DIRECTION('',(-1.,0.,-1.29575308349001E-8));
#633=DIRECTION('',(-1.,0.,-1.29575308349001E-8));
#634=DIRECTION('',(0.,1.,0.));
#635=DIRECTION('center_axis',(-0.71934104922576,0.,-0.694657077196211));
#636=DIRECTION('ref_axis',(-0.694657077196211,0.,0.71934104922576));
#637=DIRECTION('',(-0.694657077196211,0.,0.71934104922576));
#638=DIRECTION('',(-0.694657077196211,0.,0.71934104922576));
#639=DIRECTION('',(0.,1.,0.));
#640=DIRECTION('center_axis',(-1.,0.,0.));
#641=DIRECTION('ref_axis',(0.,0.,1.));
#642=DIRECTION('',(0.,0.,1.));
#643=DIRECTION('',(0.,0.,1.));
#644=DIRECTION('',(0.,1.,0.));
#645=DIRECTION('center_axis',(0.,0.,1.));
#646=DIRECTION('ref_axis',(1.,0.,0.));
#647=DIRECTION('',(1.,0.,0.));
#648=DIRECTION('',(1.,0.,0.));
#649=DIRECTION('',(0.,1.,0.));
#650=DIRECTION('center_axis',(1.,0.,-8.58712084546287E-17));
#651=DIRECTION('ref_axis',(-8.58712084546287E-17,0.,-1.));
#652=DIRECTION('',(-8.58712084546287E-17,0.,-1.));
#653=DIRECTION('',(-8.58712084546287E-17,0.,-1.));
#654=DIRECTION('',(0.,1.,0.));
#655=DIRECTION('center_axis',(0.707106781186548,0.,-0.707106781186548));
#656=DIRECTION('ref_axis',(-0.707106781186548,0.,-0.707106781186548));
#657=DIRECTION('',(-0.707106781186548,0.,-0.707106781186548));
#658=DIRECTION('',(-0.707106781186548,0.,-0.707106781186548));
#659=DIRECTION('center_axis',(-1.48029736616688E-16,0.,-1.));
#660=DIRECTION('ref_axis',(-1.,0.,1.48029736616688E-16));
#661=DIRECTION('',(-1.,0.,1.48029736616688E-16));
#662=DIRECTION('',(0.,1.,0.));
#663=DIRECTION('',(-1.,0.,1.48029736616688E-16));
#664=DIRECTION('',(0.,1.,0.));
#665=DIRECTION('center_axis',(0.866025403784438,0.,0.5));
#666=DIRECTION('ref_axis',(0.5,0.,-0.866025403784438));
#667=DIRECTION('',(-0.5,0.,0.866025403784438));
#668=DIRECTION('',(0.5,0.,-0.866025403784438));
#669=DIRECTION('',(0.,1.,0.));
#670=DIRECTION('center_axis',(7.53365616636056E-16,0.,-1.));
#671=DIRECTION('ref_axis',(-1.,0.,-7.53365616636056E-16));
#672=DIRECTION('',(-1.,0.,-7.53365616636056E-16));
#673=DIRECTION('',(-1.,0.,-7.53365616636056E-16));
#674=DIRECTION('',(0.,1.,0.));
#675=DIRECTION('center_axis',(-0.866025403784439,0.,0.499999999999999));
#676=DIRECTION('ref_axis',(0.499999999999999,0.,0.866025403784439));
#677=DIRECTION('',(0.499999999999999,0.,0.866025403784439));
#678=DIRECTION('',(0.499999999999999,0.,0.866025403784439));
#679=DIRECTION('',(0.,1.,0.));
#680=DIRECTION('center_axis',(-1.48029736616688E-16,0.,-1.));
#681=DIRECTION('ref_axis',(-1.,0.,1.48029736616688E-16));
#682=DIRECTION('',(-1.,0.,1.48029736616688E-16));
#683=DIRECTION('',(-1.,0.,1.48029736616688E-16));
#684=DIRECTION('',(0.,1.,0.));
#685=DIRECTION('center_axis',(0.866025403784438,0.,0.5));
#686=DIRECTION('ref_axis',(0.5,0.,-0.866025403784438));
#687=DIRECTION('',(-0.5,0.,0.866025403784438));
#688=DIRECTION('',(0.5,0.,-0.866025403784438));
#689=DIRECTION('',(0.,1.,0.));
#690=DIRECTION('center_axis',(7.53365616636056E-16,0.,-1.));
#691=DIRECTION('ref_axis',(-1.,0.,-7.53365616636056E-16));
#692=DIRECTION('',(-1.,0.,-7.53365616636056E-16));
#693=DIRECTION('',(-1.,0.,-7.53365616636056E-16));
#694=DIRECTION('',(0.,1.,0.));
#695=DIRECTION('center_axis',(-0.866025403784439,0.,0.499999999999999));
#696=DIRECTION('ref_axis',(0.499999999999999,0.,0.866025403784439));
#697=DIRECTION('',(0.499999999999999,0.,0.866025403784439));
#698=DIRECTION('',(0.499999999999999,0.,0.866025403784439));
#699=DIRECTION('',(0.,1.,0.));
#700=DIRECTION('center_axis',(-1.48029736616688E-16,0.,-1.));
#701=DIRECTION('ref_axis',(-1.,0.,1.48029736616688E-16));
#702=DIRECTION('',(-1.,0.,1.48029736616688E-16));
#703=DIRECTION('',(-1.,0.,1.48029736616688E-16));
#704=DIRECTION('',(0.,1.,0.));
#705=DIRECTION('center_axis',(1.,0.,0.));
#706=DIRECTION('ref_axis',(0.,0.,-1.));
#707=DIRECTION('',(0.,0.,1.));
#708=DIRECTION('',(0.,0.,-1.));
#709=DIRECTION('',(0.,1.,0.));
#710=DIRECTION('center_axis',(0.707106781186548,0.,0.707106781186548));
#711=DIRECTION('ref_axis',(0.707106781186548,0.,-0.707106781186548));
#712=DIRECTION('',(0.707106781186547,0.,-0.707106781186547));
#713=DIRECTION('',(0.707106781186547,0.,-0.707106781186547));
#714=DIRECTION('',(0.,1.,0.));
#715=DIRECTION('center_axis',(1.77635683940025E-16,0.,1.));
#716=DIRECTION('ref_axis',(1.,0.,-1.77635683940025E-16));
#717=DIRECTION('',(1.,0.,-1.77635683940025E-16));
#718=DIRECTION('',(1.,0.,-1.77635683940025E-16));
#719=DIRECTION('',(0.,1.,0.));
#720=DIRECTION('center_axis',(-0.707106781186548,0.,0.707106781186548));
#721=DIRECTION('ref_axis',(0.707106781186548,0.,0.707106781186548));
#722=DIRECTION('',(-0.707106781186547,0.,-0.707106781186547));
#723=DIRECTION('',(0.707106781186547,0.,0.707106781186547));
#724=DIRECTION('',(0.,1.,0.));
#725=DIRECTION('center_axis',(-1.,0.,0.));
#726=DIRECTION('ref_axis',(0.,0.,1.));
#727=DIRECTION('',(0.,0.,1.));
#728=DIRECTION('',(0.,0.,1.));
#729=DIRECTION('center_axis',(0.,1.,0.));
#730=DIRECTION('ref_axis',(0.,0.,1.));
#731=DIRECTION('center_axis',(0.,1.,0.));
#732=DIRECTION('ref_axis',(1.,0.,0.));
#733=CARTESIAN_POINT('',(0.,0.,0.));
#734=CARTESIAN_POINT('Origin',(75.0000011175871,55.,50.));
#735=CARTESIAN_POINT('',(75.0000011175871,55.,50.));
#736=CARTESIAN_POINT('',(45.,55.,50.));
#737=CARTESIAN_POINT('',(42.5000005587935,55.,50.));
#738=CARTESIAN_POINT('',(75.0000011175871,55.,48.));
#739=CARTESIAN_POINT('',(75.0000011175871,55.,50.));
#740=CARTESIAN_POINT('',(45.,55.,48.));
#741=CARTESIAN_POINT('',(45.,55.,48.));
#742=CARTESIAN_POINT('',(45.,55.,50.));
#743=CARTESIAN_POINT('Origin',(75.0000011175871,95.,50.));
#744=CARTESIAN_POINT('',(75.0000011175871,95.,50.));
#745=CARTESIAN_POINT('',(75.0000011175871,47.5,50.));
#746=CARTESIAN_POINT('',(75.0000011175871,95.,48.));
#747=CARTESIAN_POINT('',(75.0000011175871,95.,50.));
#748=CARTESIAN_POINT('',(75.0000011175871,55.,48.));
#749=CARTESIAN_POINT('Origin',(45.,95.,50.));
#750=CARTESIAN_POINT('',(45.,95.,50.));
#751=CARTESIAN_POINT('',(27.5,95.,50.));
#752=CARTESIAN_POINT('',(45.,95.,48.));
#753=CARTESIAN_POINT('',(45.,95.,50.));
#754=CARTESIAN_POINT('',(75.0000011175871,95.,48.));
#755=CARTESIAN_POINT('Origin',(45.,55.,50.));
#756=CARTESIAN_POINT('',(45.,27.5,50.));
#757=CARTESIAN_POINT('',(45.,95.,48.));
#758=CARTESIAN_POINT('Origin',(60.0000005587935,75.,48.));
#759=CARTESIAN_POINT('Origin',(60.,0.,40.));
#760=CARTESIAN_POINT('',(60.,0.,40.));
#761=CARTESIAN_POINT('',(14.1421356237309,0.,40.));
#762=CARTESIAN_POINT('',(60.,0.,40.));
#763=CARTESIAN_POINT('',(14.1421356237309,150.,40.));
#764=CARTESIAN_POINT('',(14.1421356237309,0.,40.));
#765=CARTESIAN_POINT('',(60.,150.,40.));
#766=CARTESIAN_POINT('',(60.,150.,40.));
#767=CARTESIAN_POINT('',(60.,0.,40.));
#768=CARTESIAN_POINT('Origin',(106.000001579523,0.,40.0000005960464));
#769=CARTESIAN_POINT('',(106.000001579523,0.,40.0000005960464));
#770=CARTESIAN_POINT('',(60.,0.,40.));
#771=CARTESIAN_POINT('',(106.000001579523,150.,40.0000005960464));
#772=CARTESIAN_POINT('',(60.,150.,40.));
#773=CARTESIAN_POINT('',(106.000001579523,0.,40.0000005960464));
#774=CARTESIAN_POINT('Origin',(110.000001639128,0.,35.8578643762691));
#775=CARTESIAN_POINT('',(110.000001639128,0.,35.8578643762691));
#776=CARTESIAN_POINT('',(110.000001639128,0.,35.8578643762691));
#777=CARTESIAN_POINT('',(110.000001639128,150.,35.8578643762691));
#778=CARTESIAN_POINT('',(110.000001639128,150.,35.8578643762691));
#779=CARTESIAN_POINT('',(110.000001639128,0.,35.8578643762691));
#780=CARTESIAN_POINT('Origin',(110.000001639128,0.,10.0000001490116));
#781=CARTESIAN_POINT('',(110.000001639128,0.,10.0000001490116));
#782=CARTESIAN_POINT('',(110.000001639128,0.,10.0000001490116));
#783=CARTESIAN_POINT('',(110.000001639128,150.,10.0000001490116));
#784=CARTESIAN_POINT('',(110.000001639128,150.,10.0000001490116));
#785=CARTESIAN_POINT('',(110.000001639128,0.,10.0000001490116));
#786=CARTESIAN_POINT('Origin',(10.,0.,10.0000001490116));
#787=CARTESIAN_POINT('',(10.,0.,10.0000001490116));
#788=CARTESIAN_POINT('',(10.,0.,10.0000001490116));
#789=CARTESIAN_POINT('',(10.,150.,10.0000001490116));
#790=CARTESIAN_POINT('',(10.,150.,10.0000001490116));
#791=CARTESIAN_POINT('',(10.,0.,10.0000001490116));
#792=CARTESIAN_POINT('Origin',(10.,0.,35.8578643762691));
#793=CARTESIAN_POINT('',(10.,0.,35.8578643762691));
#794=CARTESIAN_POINT('',(10.,0.,35.8578643762691));
#795=CARTESIAN_POINT('',(10.,150.,35.8578643762691));
#796=CARTESIAN_POINT('',(10.,150.,35.8578643762691));
#797=CARTESIAN_POINT('',(10.,0.,35.8578643762691));
#798=CARTESIAN_POINT('Origin',(14.1421356237309,0.,40.));
#799=CARTESIAN_POINT('',(12.0710678118655,0.,37.9289321881346));
#800=CARTESIAN_POINT('',(12.0710678118655,150.,37.9289321881346));
#801=CARTESIAN_POINT('Origin',(12.500000834465,0.,1.59131965627683E-14));
#802=CARTESIAN_POINT('',(12.500000834465,0.,3.18263921373314E-15));
#803=CARTESIAN_POINT('',(-6.12323399573677E-15,0.,1.77635683940025E-14));
#804=CARTESIAN_POINT('',(120.,0.,0.));
#805=CARTESIAN_POINT('',(-6.66133814775094E-15,150.,1.77635683940025E-14));
#806=CARTESIAN_POINT('',(-6.12323399573677E-15,0.,1.77635683940025E-14));
#807=CARTESIAN_POINT('',(12.500000834465,150.,0.));
#808=CARTESIAN_POINT('',(120.,150.,0.));
#809=CARTESIAN_POINT('',(12.500000834465,0.,3.18263921373314E-15));
#810=CARTESIAN_POINT('Origin',(10.000000834465,0.,4.33012701892219));
#811=CARTESIAN_POINT('',(10.000000834465,0.,4.33012701892219));
#812=CARTESIAN_POINT('',(12.500000834465,0.,3.18263921373314E-15));
#813=CARTESIAN_POINT('',(10.000000834465,150.,4.33012701892219));
#814=CARTESIAN_POINT('',(12.500000834465,150.,3.18263921373314E-15));
#815=CARTESIAN_POINT('',(10.000000834465,0.,4.33012701892219));
#816=CARTESIAN_POINT('Origin',(24.0000009685755,0.,4.3301270189222));
#817=CARTESIAN_POINT('',(24.0000009685755,0.,4.3301270189222));
#818=CARTESIAN_POINT('',(24.0000009685755,0.,4.3301270189222));
#819=CARTESIAN_POINT('',(24.0000009685755,150.,4.33012701892221));
#820=CARTESIAN_POINT('',(24.0000009685755,150.,4.3301270189222));
#821=CARTESIAN_POINT('',(24.0000009685755,0.,4.3301270189222));
#822=CARTESIAN_POINT('Origin',(21.5000009685755,0.,1.85037156433062E-15));
#823=CARTESIAN_POINT('',(21.5000009685755,0.,1.85037156433062E-15));
#824=CARTESIAN_POINT('',(21.5000009685755,0.,1.85037156433062E-15));
#825=CARTESIAN_POINT('',(21.5000009685755,150.,0.));
#826=CARTESIAN_POINT('',(21.5000009685755,150.,1.85037156433062E-15));
#827=CARTESIAN_POINT('',(21.5000009685755,0.,1.85037156433062E-15));
#828=CARTESIAN_POINT('Origin',(98.500000834465,0.,3.18263921373314E-15));
#829=CARTESIAN_POINT('',(98.500000834465,0.,3.18263921373314E-15));
#830=CARTESIAN_POINT('',(120.,0.,0.));
#831=CARTESIAN_POINT('',(98.500000834465,150.,0.));
#832=CARTESIAN_POINT('',(120.,150.,0.));
#833=CARTESIAN_POINT('',(98.500000834465,0.,3.18263921373314E-15));
#834=CARTESIAN_POINT('Origin',(96.000000834465,0.,4.33012701892219));
#835=CARTESIAN_POINT('',(96.000000834465,0.,4.33012701892219));
#836=CARTESIAN_POINT('',(98.500000834465,0.,3.18263921373314E-15));
#837=CARTESIAN_POINT('',(96.000000834465,150.,4.33012701892219));
#838=CARTESIAN_POINT('',(98.500000834465,150.,3.18263921373314E-15));
#839=CARTESIAN_POINT('',(96.000000834465,0.,4.33012701892219));
#840=CARTESIAN_POINT('Origin',(110.000000968575,0.,4.3301270189222));
#841=CARTESIAN_POINT('',(110.000000968575,0.,4.3301270189222));
#842=CARTESIAN_POINT('',(110.000000968575,0.,4.3301270189222));
#843=CARTESIAN_POINT('',(110.000000968575,150.,4.33012701892221));
#844=CARTESIAN_POINT('',(110.000000968575,150.,4.3301270189222));
#845=CARTESIAN_POINT('',(110.000000968575,0.,4.3301270189222));
#846=CARTESIAN_POINT('Origin',(107.500000968575,0.,1.85037156433062E-15));
#847=CARTESIAN_POINT('',(107.500000968575,0.,1.85037156433062E-15));
#848=CARTESIAN_POINT('',(107.500000968575,0.,1.85037156433062E-15));
#849=CARTESIAN_POINT('',(107.500000968575,150.,0.));
#850=CARTESIAN_POINT('',(107.500000968575,150.,1.85037156433062E-15));
#851=CARTESIAN_POINT('',(107.500000968575,0.,1.85037156433062E-15));
#852=CARTESIAN_POINT('Origin',(120.,0.,0.));
#853=CARTESIAN_POINT('',(120.,0.,0.));
#854=CARTESIAN_POINT('',(120.,0.,0.));
#855=CARTESIAN_POINT('',(120.,150.,0.));
#856=CARTESIAN_POINT('',(120.,150.,0.));
#857=CARTESIAN_POINT('',(120.,0.,0.));
#858=CARTESIAN_POINT('Origin',(120.,0.,40.));
#859=CARTESIAN_POINT('',(120.,0.,40.));
#860=CARTESIAN_POINT('',(120.,0.,0.));
#861=CARTESIAN_POINT('',(120.,150.,40.));
#862=CARTESIAN_POINT('',(120.,150.,0.));
#863=CARTESIAN_POINT('',(120.,0.,40.));
#864=CARTESIAN_POINT('Origin',(110.,0.,50.));
#865=CARTESIAN_POINT('',(110.,0.,50.));
#866=CARTESIAN_POINT('',(110.,0.,50.));
#867=CARTESIAN_POINT('',(110.,150.,50.));
#868=CARTESIAN_POINT('',(110.,150.,50.));
#869=CARTESIAN_POINT('',(110.,0.,50.));
#870=CARTESIAN_POINT('Origin',(9.99999999999999,0.,50.));
#871=CARTESIAN_POINT('',(9.99999999999999,0.,50.));
#872=CARTESIAN_POINT('',(9.99999999999999,0.,50.));
#873=CARTESIAN_POINT('',(9.99999999999999,150.,50.));
#874=CARTESIAN_POINT('',(9.99999999999999,150.,50.));
#875=CARTESIAN_POINT('',(9.99999999999999,0.,50.));
#876=CARTESIAN_POINT('Origin',(-6.66133814775094E-15,0.,40.));
#877=CARTESIAN_POINT('',(-6.12323399573677E-15,0.,40.));
#878=CARTESIAN_POINT('',(9.99999999999999,0.,50.));
#879=CARTESIAN_POINT('',(-6.66133814775094E-15,150.,40.));
#880=CARTESIAN_POINT('',(9.99999999999999,150.,50.));
#881=CARTESIAN_POINT('',(-6.12323399573677E-15,0.,40.));
#882=CARTESIAN_POINT('Origin',(-6.12323399573677E-15,0.,1.77635683940025E-14));
#883=CARTESIAN_POINT('',(-6.12323399573677E-15,0.,1.77635683940025E-14));
#884=CARTESIAN_POINT('',(-6.12323399573677E-15,150.,1.77635683940025E-14));
#885=CARTESIAN_POINT('Origin',(60.,150.,25.));
#886=CARTESIAN_POINT('Origin',(60.,0.,25.));
#887=UNCERTAINTY_MEASURE_WITH_UNIT(LENGTH_MEASURE(0.01),#891,
'DISTANCE_ACCURACY_VALUE',
'Maximum model space distance between geometric entities at asserted c
onnectivities');
#888=UNCERTAINTY_MEASURE_WITH_UNIT(LENGTH_MEASURE(0.01),#891,
'DISTANCE_ACCURACY_VALUE',
'Maximum model space distance between geometric entities at asserted c
onnectivities');
#889=(
GEOMETRIC_REPRESENTATION_CONTEXT(3)
GLOBAL_UNCERTAINTY_ASSIGNED_CONTEXT((#887))
GLOBAL_UNIT_ASSIGNED_CONTEXT((#891,#893,#894))
REPRESENTATION_CONTEXT('','3D')
);
#890=(
GEOMETRIC_REPRESENTATION_CONTEXT(3)
GLOBAL_UNCERTAINTY_ASSIGNED_CONTEXT((#888))
GLOBAL_UNIT_ASSIGNED_CONTEXT((#891,#893,#894))
REPRESENTATION_CONTEXT('','3D')
);
#891=(
LENGTH_UNIT()
NAMED_UNIT(*)
SI_UNIT(.MILLI.,.METRE.)
);
#892=(
LENGTH_UNIT()
NAMED_UNIT(*)
SI_UNIT($,.METRE.)
);
#893=(
NAMED_UNIT(*)
PLANE_ANGLE_UNIT()
SI_UNIT($,.RADIAN.)
);
#894=(
NAMED_UNIT(*)
SI_UNIT($,.STERADIAN.)
SOLID_ANGLE_UNIT()
);
#895=SHAPE_DEFINITION_REPRESENTATION(#896,#897);
#896=PRODUCT_DEFINITION_SHAPE('',$,#899);
#897=SHAPE_REPRESENTATION('',(#571),#889);
#898=PRODUCT_DEFINITION_CONTEXT('part definition',#903,'design');
#899=PRODUCT_DEFINITION('LED Line','LED Line v3',#900,#898);
#900=PRODUCT_DEFINITION_FORMATION('',$,#905);
#901=PRODUCT_RELATED_PRODUCT_CATEGORY('LED Line v3','LED Line v3',(#905));
#902=APPLICATION_PROTOCOL_DEFINITION('international standard',
'automotive_design',2009,#903);
#903=APPLICATION_CONTEXT(
'Core Data for Automotive Mechanical Design Process');
#904=PRODUCT_CONTEXT('part definition',#903,'mechanical');
#905=PRODUCT('LED Line','LED Line v3',$,(#904));
#906=PRESENTATION_STYLE_ASSIGNMENT((#907));
#907=SURFACE_STYLE_USAGE(.BOTH.,#908);
#908=SURFACE_SIDE_STYLE('',(#909));
#909=SURFACE_STYLE_FILL_AREA(#910);
#910=FILL_AREA_STYLE('Steel - Satin',(#911));
#911=FILL_AREA_STYLE_COLOUR('Steel - Satin',#912);
#912=COLOUR_RGB('Steel - Satin',0.627450980392157,0.627450980392157,0.627450980392157);
ENDSEC;
END-ISO-10303-21;
