ISO-10303-21;
HEADER;
/* Generated by software containing ST-Developer
 * from STEP Tools, Inc. (www.steptools.com) 
 */

FILE_DESCRIPTION(
/* description */ (''),
/* implementation_level */ '2;1');

FILE_NAME(
/* name */ 'LED Corner.step',
/* time_stamp */ '2026-09-27T15:49:49-07:00',
/* author */ (''),
/* organization */ (''),
/* preprocessor_version */ 'ST-DEVELOPER v20.2',
/* originating_system */ 'Autodesk Translation Framework v15.15.0.0',
/* authorisation */ '');

FILE_SCHEMA (('AUTOMOTIVE_DESIGN { 1 0 10303 214 3 1 1 }'));
ENDSEC;

DATA;
#10=MECHANICAL_DESIGN_GEOMETRIC_PRESENTATION_REPRESENTATION('',(#13),#1744);
#11=SHAPE_REPRESENTATION_RELATIONSHIP('SRR','None',#1751,#12);
#12=ADVANCED_BREP_SHAPE_REPRESENTATION('',(#14),#1743);
#13=STYLED_ITEM('',(#1760),#14);
#14=MANIFOLD_SOLID_BREP('Body2',#1098);
#15=FACE_BOUND('',#79,.T.);
#16=FACE_BOUND('',#86,.T.);
#17=FACE_OUTER_BOUND('',#74,.T.);
#18=FACE_OUTER_BOUND('',#75,.T.);
#19=FACE_OUTER_BOUND('',#76,.T.);
#20=FACE_OUTER_BOUND('',#77,.T.);
#21=FACE_OUTER_BOUND('',#78,.T.);
#22=FACE_OUTER_BOUND('',#80,.T.);
#23=FACE_OUTER_BOUND('',#81,.T.);
#24=FACE_OUTER_BOUND('',#82,.T.);
#25=FACE_OUTER_BOUND('',#83,.T.);
#26=FACE_OUTER_BOUND('',#84,.T.);
#27=FACE_OUTER_BOUND('',#85,.T.);
#28=FACE_OUTER_BOUND('',#87,.T.);
#29=FACE_OUTER_BOUND('',#88,.T.);
#30=FACE_OUTER_BOUND('',#89,.T.);
#31=FACE_OUTER_BOUND('',#90,.T.);
#32=FACE_OUTER_BOUND('',#91,.T.);
#33=FACE_OUTER_BOUND('',#92,.T.);
#34=FACE_OUTER_BOUND('',#93,.T.);
#35=FACE_OUTER_BOUND('',#94,.T.);
#36=FACE_OUTER_BOUND('',#95,.T.);
#37=FACE_OUTER_BOUND('',#96,.T.);
#38=FACE_OUTER_BOUND('',#97,.T.);
#39=FACE_OUTER_BOUND('',#98,.T.);
#40=FACE_OUTER_BOUND('',#99,.T.);
#41=FACE_OUTER_BOUND('',#100,.T.);
#42=FACE_OUTER_BOUND('',#101,.T.);
#43=FACE_OUTER_BOUND('',#102,.T.);
#44=FACE_OUTER_BOUND('',#103,.T.);
#45=FACE_OUTER_BOUND('',#104,.T.);
#46=FACE_OUTER_BOUND('',#105,.T.);
#47=FACE_OUTER_BOUND('',#106,.T.);
#48=FACE_OUTER_BOUND('',#107,.T.);
#49=FACE_OUTER_BOUND('',#108,.T.);
#50=FACE_OUTER_BOUND('',#109,.T.);
#51=FACE_OUTER_BOUND('',#110,.T.);
#52=FACE_OUTER_BOUND('',#111,.T.);
#53=FACE_OUTER_BOUND('',#112,.T.);
#54=FACE_OUTER_BOUND('',#113,.T.);
#55=FACE_OUTER_BOUND('',#114,.T.);
#56=FACE_OUTER_BOUND('',#115,.T.);
#57=FACE_OUTER_BOUND('',#116,.T.);
#58=FACE_OUTER_BOUND('',#117,.T.);
#59=FACE_OUTER_BOUND('',#118,.T.);
#60=FACE_OUTER_BOUND('',#119,.T.);
#61=FACE_OUTER_BOUND('',#120,.T.);
#62=FACE_OUTER_BOUND('',#121,.T.);
#63=FACE_OUTER_BOUND('',#122,.T.);
#64=FACE_OUTER_BOUND('',#123,.T.);
#65=FACE_OUTER_BOUND('',#124,.T.);
#66=FACE_OUTER_BOUND('',#125,.T.);
#67=FACE_OUTER_BOUND('',#126,.T.);
#68=FACE_OUTER_BOUND('',#127,.T.);
#69=FACE_OUTER_BOUND('',#128,.T.);
#70=FACE_OUTER_BOUND('',#129,.T.);
#71=FACE_OUTER_BOUND('',#130,.T.);
#72=FACE_OUTER_BOUND('',#131,.T.);
#73=FACE_OUTER_BOUND('',#132,.T.);
#74=EDGE_LOOP('',(#682,#683,#684,#685));
#75=EDGE_LOOP('',(#686,#687,#688,#689,#690,#691));
#76=EDGE_LOOP('',(#692,#693,#694,#695));
#77=EDGE_LOOP('',(#696,#697,#698,#699));
#78=EDGE_LOOP('',(#700,#701,#702,#703,#704,#705,#706,#707,#708,#709,#710,
#711,#712,#713,#714,#715,#716,#717,#718,#719,#720,#721,#722,#723,#724,#725,
#726,#727,#728,#729));
#79=EDGE_LOOP('',(#730,#731,#732,#733,#734));
#80=EDGE_LOOP('',(#735,#736,#737,#738,#739));
#81=EDGE_LOOP('',(#740,#741,#742,#743,#744));
#82=EDGE_LOOP('',(#745,#746,#747,#748,#749,#750));
#83=EDGE_LOOP('',(#751,#752,#753,#754));
#84=EDGE_LOOP('',(#755,#756,#757,#758));
#85=EDGE_LOOP('',(#759,#760,#761,#762,#763,#764,#765,#766,#767,#768,#769,
#770,#771,#772,#773,#774,#775,#776,#777,#778,#779,#780,#781,#782,#783,#784,
#785,#786,#787,#788));
#86=EDGE_LOOP('',(#789,#790,#791,#792,#793));
#87=EDGE_LOOP('',(#794,#795,#796,#797));
#88=EDGE_LOOP('',(#798,#799,#800,#801));
#89=EDGE_LOOP('',(#802,#803,#804,#805,#806));
#90=EDGE_LOOP('',(#807,#808,#809,#810));
#91=EDGE_LOOP('',(#811,#812,#813,#814,#815));
#92=EDGE_LOOP('',(#816,#817,#818,#819));
#93=EDGE_LOOP('',(#820,#821,#822,#823));
#94=EDGE_LOOP('',(#824,#825,#826,#827));
#95=EDGE_LOOP('',(#828,#829,#830,#831));
#96=EDGE_LOOP('',(#832,#833,#834,#835));
#97=EDGE_LOOP('',(#836,#837,#838,#839));
#98=EDGE_LOOP('',(#840,#841,#842,#843));
#99=EDGE_LOOP('',(#844,#845,#846,#847));
#100=EDGE_LOOP('',(#848,#849,#850,#851));
#101=EDGE_LOOP('',(#852,#853,#854,#855));
#102=EDGE_LOOP('',(#856,#857,#858,#859));
#103=EDGE_LOOP('',(#860,#861,#862,#863));
#104=EDGE_LOOP('',(#864,#865,#866,#867));
#105=EDGE_LOOP('',(#868,#869,#870,#871));
#106=EDGE_LOOP('',(#872,#873,#874,#875));
#107=EDGE_LOOP('',(#876,#877,#878,#879));
#108=EDGE_LOOP('',(#880,#881,#882,#883));
#109=EDGE_LOOP('',(#884,#885,#886,#887));
#110=EDGE_LOOP('',(#888,#889,#890,#891));
#111=EDGE_LOOP('',(#892,#893,#894,#895));
#112=EDGE_LOOP('',(#896,#897,#898,#899));
#113=EDGE_LOOP('',(#900,#901,#902,#903));
#114=EDGE_LOOP('',(#904,#905,#906,#907,#908,#909));
#115=EDGE_LOOP('',(#910,#911,#912,#913));
#116=EDGE_LOOP('',(#914,#915,#916,#917));
#117=EDGE_LOOP('',(#918,#919,#920,#921));
#118=EDGE_LOOP('',(#922,#923,#924,#925));
#119=EDGE_LOOP('',(#926,#927,#928,#929));
#120=EDGE_LOOP('',(#930,#931,#932,#933));
#121=EDGE_LOOP('',(#934,#935,#936,#937));
#122=EDGE_LOOP('',(#938,#939,#940,#941));
#123=EDGE_LOOP('',(#942,#943,#944,#945));
#124=EDGE_LOOP('',(#946,#947,#948,#949,#950,#951));
#125=EDGE_LOOP('',(#952,#953,#954,#955));
#126=EDGE_LOOP('',(#956,#957,#958,#959));
#127=EDGE_LOOP('',(#960,#961,#962,#963));
#128=EDGE_LOOP('',(#964,#965,#966,#967));
#129=EDGE_LOOP('',(#968,#969,#970,#971));
#130=EDGE_LOOP('',(#972,#973,#974,#975));
#131=EDGE_LOOP('',(#976,#977,#978,#979));
#132=EDGE_LOOP('',(#980,#981,#982,#983));
#133=LINE('',#1440,#284);
#134=LINE('',#1442,#285);
#135=LINE('',#1444,#286);
#136=LINE('',#1445,#287);
#137=LINE('',#1448,#288);
#138=LINE('',#1450,#289);
#139=LINE('',#1452,#290);
#140=LINE('',#1454,#291);
#141=LINE('',#1455,#292);
#142=LINE('',#1458,#293);
#143=LINE('',#1459,#294);
#144=LINE('',#1462,#295);
#145=LINE('',#1463,#296);
#146=LINE('',#1466,#297);
#147=LINE('',#1468,#298);
#148=LINE('',#1470,#299);
#149=LINE('',#1472,#300);
#150=LINE('',#1474,#301);
#151=LINE('',#1476,#302);
#152=LINE('',#1478,#303);
#153=LINE('',#1480,#304);
#154=LINE('',#1482,#305);
#155=LINE('',#1484,#306);
#156=LINE('',#1486,#307);
#157=LINE('',#1488,#308);
#158=LINE('',#1490,#309);
#159=LINE('',#1492,#310);
#160=LINE('',#1494,#311);
#161=LINE('',#1496,#312);
#162=LINE('',#1498,#313);
#163=LINE('',#1500,#314);
#164=LINE('',#1502,#315);
#165=LINE('',#1504,#316);
#166=LINE('',#1506,#317);
#167=LINE('',#1508,#318);
#168=LINE('',#1510,#319);
#169=LINE('',#1512,#320);
#170=LINE('',#1514,#321);
#171=LINE('',#1516,#322);
#172=LINE('',#1518,#323);
#173=LINE('',#1519,#324);
#174=LINE('',#1522,#325);
#175=LINE('',#1524,#326);
#176=LINE('',#1526,#327);
#177=LINE('',#1528,#328);
#178=LINE('',#1529,#329);
#179=LINE('',#1532,#330);
#180=LINE('',#1534,#331);
#181=LINE('',#1535,#332);
#182=LINE('',#1539,#333);
#183=LINE('',#1541,#334);
#184=LINE('',#1543,#335);
#185=LINE('',#1545,#336);
#186=LINE('',#1546,#337);
#187=LINE('',#1549,#338);
#188=LINE('',#1550,#339);
#189=LINE('',#1552,#340);
#190=LINE('',#1553,#341);
#191=LINE('',#1556,#342);
#192=LINE('',#1557,#343);
#193=LINE('',#1561,#344);
#194=LINE('',#1563,#345);
#195=LINE('',#1565,#346);
#196=LINE('',#1566,#347);
#197=LINE('',#1569,#348);
#198=LINE('',#1571,#349);
#199=LINE('',#1573,#350);
#200=LINE('',#1575,#351);
#201=LINE('',#1577,#352);
#202=LINE('',#1579,#353);
#203=LINE('',#1581,#354);
#204=LINE('',#1583,#355);
#205=LINE('',#1585,#356);
#206=LINE('',#1587,#357);
#207=LINE('',#1589,#358);
#208=LINE('',#1591,#359);
#209=LINE('',#1593,#360);
#210=LINE('',#1594,#361);
#211=LINE('',#1596,#362);
#212=LINE('',#1598,#363);
#213=LINE('',#1600,#364);
#214=LINE('',#1602,#365);
#215=LINE('',#1604,#366);
#216=LINE('',#1606,#367);
#217=LINE('',#1608,#368);
#218=LINE('',#1610,#369);
#219=LINE('',#1612,#370);
#220=LINE('',#1614,#371);
#221=LINE('',#1615,#372);
#222=LINE('',#1616,#373);
#223=LINE('',#1619,#374);
#224=LINE('',#1621,#375);
#225=LINE('',#1623,#376);
#226=LINE('',#1625,#377);
#227=LINE('',#1626,#378);
#228=LINE('',#1629,#379);
#229=LINE('',#1631,#380);
#230=LINE('',#1632,#381);
#231=LINE('',#1634,#382);
#232=LINE('',#1635,#383);
#233=LINE('',#1637,#384);
#234=LINE('',#1639,#385);
#235=LINE('',#1643,#386);
#236=LINE('',#1645,#387);
#237=LINE('',#1646,#388);
#238=LINE('',#1649,#389);
#239=LINE('',#1651,#390);
#240=LINE('',#1652,#391);
#241=LINE('',#1655,#392);
#242=LINE('',#1656,#393);
#243=LINE('',#1659,#394);
#244=LINE('',#1660,#395);
#245=LINE('',#1663,#396);
#246=LINE('',#1664,#397);
#247=LINE('',#1666,#398);
#248=LINE('',#1669,#399);
#249=LINE('',#1670,#400);
#250=LINE('',#1673,#401);
#251=LINE('',#1674,#402);
#252=LINE('',#1677,#403);
#253=LINE('',#1678,#404);
#254=LINE('',#1680,#405);
#255=LINE('',#1682,#406);
#256=LINE('',#1683,#407);
#257=LINE('',#1685,#408);
#258=LINE('',#1686,#409);
#259=LINE('',#1689,#410);
#260=LINE('',#1692,#411);
#261=LINE('',#1694,#412);
#262=LINE('',#1696,#413);
#263=LINE('',#1698,#414);
#264=LINE('',#1699,#415);
#265=LINE('',#1701,#416);
#266=LINE('',#1703,#417);
#267=LINE('',#1706,#418);
#268=LINE('',#1708,#419);
#269=LINE('',#1710,#420);
#270=LINE('',#1712,#421);
#271=LINE('',#1714,#422);
#272=LINE('',#1716,#423);
#273=LINE('',#1718,#424);
#274=LINE('',#1720,#425);
#275=LINE('',#1722,#426);
#276=LINE('',#1724,#427);
#277=LINE('',#1727,#428);
#278=LINE('',#1729,#429);
#279=LINE('',#1731,#430);
#280=LINE('',#1733,#431);
#281=LINE('',#1735,#432);
#282=LINE('',#1737,#433);
#283=LINE('',#1739,#434);
#284=VECTOR('',#1173,10.);
#285=VECTOR('',#1174,10.);
#286=VECTOR('',#1175,10.);
#287=VECTOR('',#1176,10.);
#288=VECTOR('',#1179,10.);
#289=VECTOR('',#1180,10.);
#290=VECTOR('',#1181,10.);
#291=VECTOR('',#1182,10.);
#292=VECTOR('',#1183,10.);
#293=VECTOR('',#1186,10.);
#294=VECTOR('',#1187,10.);
#295=VECTOR('',#1190,10.);
#296=VECTOR('',#1191,10.);
#297=VECTOR('',#1194,10.);
#298=VECTOR('',#1195,10.);
#299=VECTOR('',#1196,10.);
#300=VECTOR('',#1197,10.);
#301=VECTOR('',#1198,10.);
#302=VECTOR('',#1199,10.);
#303=VECTOR('',#1200,10.);
#304=VECTOR('',#1201,10.);
#305=VECTOR('',#1202,10.);
#306=VECTOR('',#1203,10.);
#307=VECTOR('',#1204,10.);
#308=VECTOR('',#1205,10.);
#309=VECTOR('',#1206,10.);
#310=VECTOR('',#1207,10.);
#311=VECTOR('',#1208,10.);
#312=VECTOR('',#1209,10.);
#313=VECTOR('',#1210,10.);
#314=VECTOR('',#1211,10.);
#315=VECTOR('',#1212,10.);
#316=VECTOR('',#1213,10.);
#317=VECTOR('',#1214,10.);
#318=VECTOR('',#1215,10.);
#319=VECTOR('',#1216,10.);
#320=VECTOR('',#1217,10.);
#321=VECTOR('',#1218,10.);
#322=VECTOR('',#1219,10.);
#323=VECTOR('',#1220,10.);
#324=VECTOR('',#1221,10.);
#325=VECTOR('',#1222,10.);
#326=VECTOR('',#1223,10.);
#327=VECTOR('',#1224,10.);
#328=VECTOR('',#1225,10.);
#329=VECTOR('',#1226,10.);
#330=VECTOR('',#1229,10.);
#331=VECTOR('',#1230,10.);
#332=VECTOR('',#1231,10.);
#333=VECTOR('',#1234,10.);
#334=VECTOR('',#1235,10.);
#335=VECTOR('',#1236,10.);
#336=VECTOR('',#1237,10.);
#337=VECTOR('',#1238,10.);
#338=VECTOR('',#1241,10.);
#339=VECTOR('',#1242,10.);
#340=VECTOR('',#1243,10.);
#341=VECTOR('',#1244,10.);
#342=VECTOR('',#1247,10.);
#343=VECTOR('',#1248,10.);
#344=VECTOR('',#1251,10.);
#345=VECTOR('',#1252,10.);
#346=VECTOR('',#1253,10.);
#347=VECTOR('',#1254,10.);
#348=VECTOR('',#1257,10.);
#349=VECTOR('',#1258,10.);
#350=VECTOR('',#1259,10.);
#351=VECTOR('',#1260,10.);
#352=VECTOR('',#1261,10.);
#353=VECTOR('',#1262,10.);
#354=VECTOR('',#1263,10.);
#355=VECTOR('',#1264,10.);
#356=VECTOR('',#1265,10.);
#357=VECTOR('',#1266,10.);
#358=VECTOR('',#1267,10.);
#359=VECTOR('',#1268,10.);
#360=VECTOR('',#1269,10.);
#361=VECTOR('',#1270,10.);
#362=VECTOR('',#1271,10.);
#363=VECTOR('',#1272,10.);
#364=VECTOR('',#1273,10.);
#365=VECTOR('',#1274,10.);
#366=VECTOR('',#1275,10.);
#367=VECTOR('',#1276,10.);
#368=VECTOR('',#1277,10.);
#369=VECTOR('',#1278,10.);
#370=VECTOR('',#1279,10.);
#371=VECTOR('',#1280,10.);
#372=VECTOR('',#1281,10.);
#373=VECTOR('',#1282,10.);
#374=VECTOR('',#1283,10.);
#375=VECTOR('',#1284,10.);
#376=VECTOR('',#1285,10.);
#377=VECTOR('',#1286,10.);
#378=VECTOR('',#1287,10.);
#379=VECTOR('',#1290,10.);
#380=VECTOR('',#1291,10.);
#381=VECTOR('',#1292,10.);
#382=VECTOR('',#1295,10.);
#383=VECTOR('',#1296,10.);
#384=VECTOR('',#1299,10.);
#385=VECTOR('',#1302,10.);
#386=VECTOR('',#1307,10.);
#387=VECTOR('',#1308,10.);
#388=VECTOR('',#1309,10.);
#389=VECTOR('',#1312,10.);
#390=VECTOR('',#1313,10.);
#391=VECTOR('',#1314,10.);
#392=VECTOR('',#1317,10.);
#393=VECTOR('',#1318,10.);
#394=VECTOR('',#1321,10.);
#395=VECTOR('',#1322,10.);
#396=VECTOR('',#1325,10.);
#397=VECTOR('',#1326,10.);
#398=VECTOR('',#1329,10.);
#399=VECTOR('',#1332,10.);
#400=VECTOR('',#1333,10.);
#401=VECTOR('',#1336,10.);
#402=VECTOR('',#1337,10.);
#403=VECTOR('',#1340,10.);
#404=VECTOR('',#1341,10.);
#405=VECTOR('',#1344,10.);
#406=VECTOR('',#1347,10.);
#407=VECTOR('',#1348,10.);
#408=VECTOR('',#1351,10.);
#409=VECTOR('',#1352,10.);
#410=VECTOR('',#1357,10.);
#411=VECTOR('',#1362,10.);
#412=VECTOR('',#1365,10.);
#413=VECTOR('',#1368,10.);
#414=VECTOR('',#1371,10.);
#415=VECTOR('',#1372,10.);
#416=VECTOR('',#1375,10.);
#417=VECTOR('',#1378,10.);
#418=VECTOR('',#1383,10.);
#419=VECTOR('',#1386,10.);
#420=VECTOR('',#1389,10.);
#421=VECTOR('',#1392,10.);
#422=VECTOR('',#1395,10.);
#423=VECTOR('',#1398,10.);
#424=VECTOR('',#1401,10.);
#425=VECTOR('',#1404,10.);
#426=VECTOR('',#1407,10.);
#427=VECTOR('',#1410,10.);
#428=VECTOR('',#1415,10.);
#429=VECTOR('',#1418,10.);
#430=VECTOR('',#1421,10.);
#431=VECTOR('',#1424,10.);
#432=VECTOR('',#1427,10.);
#433=VECTOR('',#1430,10.);
#434=VECTOR('',#1433,10.);
#435=VERTEX_POINT('',#1438);
#436=VERTEX_POINT('',#1439);
#437=VERTEX_POINT('',#1441);
#438=VERTEX_POINT('',#1443);
#439=VERTEX_POINT('',#1447);
#440=VERTEX_POINT('',#1449);
#441=VERTEX_POINT('',#1451);
#442=VERTEX_POINT('',#1453);
#443=VERTEX_POINT('',#1457);
#444=VERTEX_POINT('',#1461);
#445=VERTEX_POINT('',#1465);
#446=VERTEX_POINT('',#1467);
#447=VERTEX_POINT('',#1469);
#448=VERTEX_POINT('',#1471);
#449=VERTEX_POINT('',#1473);
#450=VERTEX_POINT('',#1475);
#451=VERTEX_POINT('',#1477);
#452=VERTEX_POINT('',#1479);
#453=VERTEX_POINT('',#1481);
#454=VERTEX_POINT('',#1483);
#455=VERTEX_POINT('',#1485);
#456=VERTEX_POINT('',#1487);
#457=VERTEX_POINT('',#1489);
#458=VERTEX_POINT('',#1491);
#459=VERTEX_POINT('',#1493);
#460=VERTEX_POINT('',#1495);
#461=VERTEX_POINT('',#1497);
#462=VERTEX_POINT('',#1499);
#463=VERTEX_POINT('',#1501);
#464=VERTEX_POINT('',#1503);
#465=VERTEX_POINT('',#1505);
#466=VERTEX_POINT('',#1507);
#467=VERTEX_POINT('',#1509);
#468=VERTEX_POINT('',#1511);
#469=VERTEX_POINT('',#1513);
#470=VERTEX_POINT('',#1515);
#471=VERTEX_POINT('',#1517);
#472=VERTEX_POINT('',#1520);
#473=VERTEX_POINT('',#1521);
#474=VERTEX_POINT('',#1523);
#475=VERTEX_POINT('',#1525);
#476=VERTEX_POINT('',#1527);
#477=VERTEX_POINT('',#1531);
#478=VERTEX_POINT('',#1533);
#479=VERTEX_POINT('',#1537);
#480=VERTEX_POINT('',#1538);
#481=VERTEX_POINT('',#1540);
#482=VERTEX_POINT('',#1542);
#483=VERTEX_POINT('',#1544);
#484=VERTEX_POINT('',#1548);
#485=VERTEX_POINT('',#1551);
#486=VERTEX_POINT('',#1555);
#487=VERTEX_POINT('',#1559);
#488=VERTEX_POINT('',#1560);
#489=VERTEX_POINT('',#1562);
#490=VERTEX_POINT('',#1564);
#491=VERTEX_POINT('',#1568);
#492=VERTEX_POINT('',#1570);
#493=VERTEX_POINT('',#1572);
#494=VERTEX_POINT('',#1574);
#495=VERTEX_POINT('',#1576);
#496=VERTEX_POINT('',#1578);
#497=VERTEX_POINT('',#1580);
#498=VERTEX_POINT('',#1582);
#499=VERTEX_POINT('',#1584);
#500=VERTEX_POINT('',#1586);
#501=VERTEX_POINT('',#1588);
#502=VERTEX_POINT('',#1590);
#503=VERTEX_POINT('',#1592);
#504=VERTEX_POINT('',#1595);
#505=VERTEX_POINT('',#1597);
#506=VERTEX_POINT('',#1599);
#507=VERTEX_POINT('',#1601);
#508=VERTEX_POINT('',#1603);
#509=VERTEX_POINT('',#1605);
#510=VERTEX_POINT('',#1607);
#511=VERTEX_POINT('',#1609);
#512=VERTEX_POINT('',#1611);
#513=VERTEX_POINT('',#1613);
#514=VERTEX_POINT('',#1617);
#515=VERTEX_POINT('',#1618);
#516=VERTEX_POINT('',#1620);
#517=VERTEX_POINT('',#1622);
#518=VERTEX_POINT('',#1624);
#519=VERTEX_POINT('',#1628);
#520=VERTEX_POINT('',#1630);
#521=VERTEX_POINT('',#1642);
#522=VERTEX_POINT('',#1644);
#523=VERTEX_POINT('',#1648);
#524=VERTEX_POINT('',#1650);
#525=VERTEX_POINT('',#1654);
#526=VERTEX_POINT('',#1658);
#527=VERTEX_POINT('',#1662);
#528=VERTEX_POINT('',#1668);
#529=VERTEX_POINT('',#1672);
#530=VERTEX_POINT('',#1676);
#531=EDGE_CURVE('',#435,#436,#133,.T.);
#532=EDGE_CURVE('',#436,#437,#134,.T.);
#533=EDGE_CURVE('',#437,#438,#135,.T.);
#534=EDGE_CURVE('',#438,#435,#136,.T.);
#535=EDGE_CURVE('',#439,#435,#137,.T.);
#536=EDGE_CURVE('',#440,#439,#138,.T.);
#537=EDGE_CURVE('',#441,#440,#139,.T.);
#538=EDGE_CURVE('',#442,#441,#140,.T.);
#539=EDGE_CURVE('',#436,#442,#141,.T.);
#540=EDGE_CURVE('',#443,#438,#142,.T.);
#541=EDGE_CURVE('',#439,#443,#143,.T.);
#542=EDGE_CURVE('',#443,#444,#144,.T.);
#543=EDGE_CURVE('',#444,#440,#145,.T.);
#544=EDGE_CURVE('',#445,#444,#146,.T.);
#545=EDGE_CURVE('',#446,#445,#147,.T.);
#546=EDGE_CURVE('',#446,#447,#148,.T.);
#547=EDGE_CURVE('',#447,#448,#149,.T.);
#548=EDGE_CURVE('',#449,#448,#150,.T.);
#549=EDGE_CURVE('',#450,#449,#151,.T.);
#550=EDGE_CURVE('',#450,#451,#152,.T.);
#551=EDGE_CURVE('',#451,#452,#153,.T.);
#552=EDGE_CURVE('',#453,#452,#154,.T.);
#553=EDGE_CURVE('',#454,#453,#155,.T.);
#554=EDGE_CURVE('',#454,#455,#156,.T.);
#555=EDGE_CURVE('',#455,#456,#157,.T.);
#556=EDGE_CURVE('',#457,#456,#158,.T.);
#557=EDGE_CURVE('',#458,#457,#159,.T.);
#558=EDGE_CURVE('',#458,#459,#160,.T.);
#559=EDGE_CURVE('',#459,#460,#161,.T.);
#560=EDGE_CURVE('',#460,#461,#162,.T.);
#561=EDGE_CURVE('',#462,#461,#163,.T.);
#562=EDGE_CURVE('',#462,#463,#164,.T.);
#563=EDGE_CURVE('',#463,#464,#165,.T.);
#564=EDGE_CURVE('',#464,#465,#166,.T.);
#565=EDGE_CURVE('',#466,#465,#167,.T.);
#566=EDGE_CURVE('',#466,#467,#168,.T.);
#567=EDGE_CURVE('',#467,#468,#169,.T.);
#568=EDGE_CURVE('',#468,#469,#170,.T.);
#569=EDGE_CURVE('',#470,#469,#171,.T.);
#570=EDGE_CURVE('',#470,#471,#172,.T.);
#571=EDGE_CURVE('',#441,#471,#173,.T.);
#572=EDGE_CURVE('',#472,#473,#174,.T.);
#573=EDGE_CURVE('',#474,#472,#175,.T.);
#574=EDGE_CURVE('',#475,#474,#176,.T.);
#575=EDGE_CURVE('',#476,#475,#177,.T.);
#576=EDGE_CURVE('',#473,#476,#178,.T.);
#577=EDGE_CURVE('',#443,#477,#179,.T.);
#578=EDGE_CURVE('',#477,#478,#180,.T.);
#579=EDGE_CURVE('',#445,#478,#181,.T.);
#580=EDGE_CURVE('',#479,#480,#182,.T.);
#581=EDGE_CURVE('',#480,#481,#183,.T.);
#582=EDGE_CURVE('',#481,#482,#184,.F.);
#583=EDGE_CURVE('',#482,#483,#185,.T.);
#584=EDGE_CURVE('',#483,#479,#186,.T.);
#585=EDGE_CURVE('',#483,#484,#187,.T.);
#586=EDGE_CURVE('',#478,#484,#188,.T.);
#587=EDGE_CURVE('',#477,#485,#189,.T.);
#588=EDGE_CURVE('',#479,#485,#190,.T.);
#589=EDGE_CURVE('',#486,#482,#191,.T.);
#590=EDGE_CURVE('',#484,#486,#192,.T.);
#591=EDGE_CURVE('',#487,#488,#193,.T.);
#592=EDGE_CURVE('',#488,#489,#194,.T.);
#593=EDGE_CURVE('',#489,#490,#195,.F.);
#594=EDGE_CURVE('',#490,#487,#196,.T.);
#595=EDGE_CURVE('',#491,#442,#197,.T.);
#596=EDGE_CURVE('',#491,#492,#198,.T.);
#597=EDGE_CURVE('',#492,#493,#199,.T.);
#598=EDGE_CURVE('',#493,#494,#200,.T.);
#599=EDGE_CURVE('',#494,#495,#201,.T.);
#600=EDGE_CURVE('',#495,#496,#202,.T.);
#601=EDGE_CURVE('',#496,#497,#203,.T.);
#602=EDGE_CURVE('',#497,#498,#204,.T.);
#603=EDGE_CURVE('',#498,#499,#205,.T.);
#604=EDGE_CURVE('',#499,#500,#206,.T.);
#605=EDGE_CURVE('',#500,#501,#207,.T.);
#606=EDGE_CURVE('',#501,#502,#208,.T.);
#607=EDGE_CURVE('',#502,#503,#209,.T.);
#608=EDGE_CURVE('',#503,#487,#210,.T.);
#609=EDGE_CURVE('',#490,#504,#211,.T.);
#610=EDGE_CURVE('',#504,#505,#212,.T.);
#611=EDGE_CURVE('',#505,#506,#213,.T.);
#612=EDGE_CURVE('',#506,#507,#214,.T.);
#613=EDGE_CURVE('',#507,#508,#215,.T.);
#614=EDGE_CURVE('',#508,#509,#216,.T.);
#615=EDGE_CURVE('',#509,#510,#217,.T.);
#616=EDGE_CURVE('',#510,#511,#218,.T.);
#617=EDGE_CURVE('',#511,#512,#219,.T.);
#618=EDGE_CURVE('',#512,#513,#220,.T.);
#619=EDGE_CURVE('',#513,#481,#221,.T.);
#620=EDGE_CURVE('',#437,#480,#222,.T.);
#621=EDGE_CURVE('',#514,#515,#223,.T.);
#622=EDGE_CURVE('',#516,#514,#224,.T.);
#623=EDGE_CURVE('',#517,#516,#225,.T.);
#624=EDGE_CURVE('',#518,#517,#226,.T.);
#625=EDGE_CURVE('',#515,#518,#227,.T.);
#626=EDGE_CURVE('',#519,#458,#228,.T.);
#627=EDGE_CURVE('',#457,#520,#229,.F.);
#628=EDGE_CURVE('',#520,#519,#230,.T.);
#629=EDGE_CURVE('',#519,#488,#231,.T.);
#630=EDGE_CURVE('',#520,#489,#232,.T.);
#631=EDGE_CURVE('',#486,#446,#233,.F.);
#632=EDGE_CURVE('',#485,#438,#234,.T.);
#633=EDGE_CURVE('',#518,#521,#235,.F.);
#634=EDGE_CURVE('',#521,#522,#236,.T.);
#635=EDGE_CURVE('',#522,#515,#237,.F.);
#636=EDGE_CURVE('',#523,#521,#238,.T.);
#637=EDGE_CURVE('',#524,#523,#239,.T.);
#638=EDGE_CURVE('',#524,#522,#240,.T.);
#639=EDGE_CURVE('',#525,#521,#241,.T.);
#640=EDGE_CURVE('',#517,#525,#242,.T.);
#641=EDGE_CURVE('',#516,#526,#243,.T.);
#642=EDGE_CURVE('',#526,#525,#244,.T.);
#643=EDGE_CURVE('',#514,#527,#245,.T.);
#644=EDGE_CURVE('',#527,#526,#246,.T.);
#645=EDGE_CURVE('',#522,#527,#247,.T.);
#646=EDGE_CURVE('',#528,#525,#248,.T.);
#647=EDGE_CURVE('',#523,#528,#249,.T.);
#648=EDGE_CURVE('',#529,#526,#250,.T.);
#649=EDGE_CURVE('',#528,#529,#251,.T.);
#650=EDGE_CURVE('',#530,#527,#252,.T.);
#651=EDGE_CURVE('',#529,#530,#253,.T.);
#652=EDGE_CURVE('',#530,#524,#254,.T.);
#653=EDGE_CURVE('',#474,#529,#255,.T.);
#654=EDGE_CURVE('',#475,#530,#256,.T.);
#655=EDGE_CURVE('',#528,#472,#257,.T.);
#656=EDGE_CURVE('',#473,#523,#258,.T.);
#657=EDGE_CURVE('',#476,#524,#259,.T.);
#658=EDGE_CURVE('',#471,#491,#260,.T.);
#659=EDGE_CURVE('',#470,#492,#261,.T.);
#660=EDGE_CURVE('',#487,#458,#262,.T.);
#661=EDGE_CURVE('',#466,#496,#263,.T.);
#662=EDGE_CURVE('',#467,#495,#264,.T.);
#663=EDGE_CURVE('',#468,#494,#265,.T.);
#664=EDGE_CURVE('',#469,#493,#266,.T.);
#665=EDGE_CURVE('',#447,#513,#267,.T.);
#666=EDGE_CURVE('',#448,#512,#268,.T.);
#667=EDGE_CURVE('',#449,#511,#269,.T.);
#668=EDGE_CURVE('',#450,#510,#270,.T.);
#669=EDGE_CURVE('',#451,#509,#271,.T.);
#670=EDGE_CURVE('',#452,#508,#272,.T.);
#671=EDGE_CURVE('',#453,#507,#273,.T.);
#672=EDGE_CURVE('',#454,#506,#274,.T.);
#673=EDGE_CURVE('',#455,#505,#275,.T.);
#674=EDGE_CURVE('',#456,#504,#276,.T.);
#675=EDGE_CURVE('',#459,#503,#277,.T.);
#676=EDGE_CURVE('',#460,#502,#278,.T.);
#677=EDGE_CURVE('',#461,#501,#279,.T.);
#678=EDGE_CURVE('',#462,#500,#280,.T.);
#679=EDGE_CURVE('',#463,#499,#281,.T.);
#680=EDGE_CURVE('',#464,#498,#282,.T.);
#681=EDGE_CURVE('',#465,#497,#283,.T.);
#682=ORIENTED_EDGE('',*,*,#531,.T.);
#683=ORIENTED_EDGE('',*,*,#532,.T.);
#684=ORIENTED_EDGE('',*,*,#533,.T.);
#685=ORIENTED_EDGE('',*,*,#534,.T.);
#686=ORIENTED_EDGE('',*,*,#531,.F.);
#687=ORIENTED_EDGE('',*,*,#535,.F.);
#688=ORIENTED_EDGE('',*,*,#536,.F.);
#689=ORIENTED_EDGE('',*,*,#537,.F.);
#690=ORIENTED_EDGE('',*,*,#538,.F.);
#691=ORIENTED_EDGE('',*,*,#539,.F.);
#692=ORIENTED_EDGE('',*,*,#534,.F.);
#693=ORIENTED_EDGE('',*,*,#540,.F.);
#694=ORIENTED_EDGE('',*,*,#541,.F.);
#695=ORIENTED_EDGE('',*,*,#535,.T.);
#696=ORIENTED_EDGE('',*,*,#536,.T.);
#697=ORIENTED_EDGE('',*,*,#541,.T.);
#698=ORIENTED_EDGE('',*,*,#542,.T.);
#699=ORIENTED_EDGE('',*,*,#543,.T.);
#700=ORIENTED_EDGE('',*,*,#543,.F.);
#701=ORIENTED_EDGE('',*,*,#544,.F.);
#702=ORIENTED_EDGE('',*,*,#545,.F.);
#703=ORIENTED_EDGE('',*,*,#546,.T.);
#704=ORIENTED_EDGE('',*,*,#547,.T.);
#705=ORIENTED_EDGE('',*,*,#548,.F.);
#706=ORIENTED_EDGE('',*,*,#549,.F.);
#707=ORIENTED_EDGE('',*,*,#550,.T.);
#708=ORIENTED_EDGE('',*,*,#551,.T.);
#709=ORIENTED_EDGE('',*,*,#552,.F.);
#710=ORIENTED_EDGE('',*,*,#553,.F.);
#711=ORIENTED_EDGE('',*,*,#554,.T.);
#712=ORIENTED_EDGE('',*,*,#555,.T.);
#713=ORIENTED_EDGE('',*,*,#556,.F.);
#714=ORIENTED_EDGE('',*,*,#557,.F.);
#715=ORIENTED_EDGE('',*,*,#558,.T.);
#716=ORIENTED_EDGE('',*,*,#559,.T.);
#717=ORIENTED_EDGE('',*,*,#560,.T.);
#718=ORIENTED_EDGE('',*,*,#561,.F.);
#719=ORIENTED_EDGE('',*,*,#562,.T.);
#720=ORIENTED_EDGE('',*,*,#563,.T.);
#721=ORIENTED_EDGE('',*,*,#564,.T.);
#722=ORIENTED_EDGE('',*,*,#565,.F.);
#723=ORIENTED_EDGE('',*,*,#566,.T.);
#724=ORIENTED_EDGE('',*,*,#567,.T.);
#725=ORIENTED_EDGE('',*,*,#568,.T.);
#726=ORIENTED_EDGE('',*,*,#569,.F.);
#727=ORIENTED_EDGE('',*,*,#570,.T.);
#728=ORIENTED_EDGE('',*,*,#571,.F.);
#729=ORIENTED_EDGE('',*,*,#537,.T.);
#730=ORIENTED_EDGE('',*,*,#572,.F.);
#731=ORIENTED_EDGE('',*,*,#573,.F.);
#732=ORIENTED_EDGE('',*,*,#574,.F.);
#733=ORIENTED_EDGE('',*,*,#575,.F.);
#734=ORIENTED_EDGE('',*,*,#576,.F.);
#735=ORIENTED_EDGE('',*,*,#542,.F.);
#736=ORIENTED_EDGE('',*,*,#577,.T.);
#737=ORIENTED_EDGE('',*,*,#578,.T.);
#738=ORIENTED_EDGE('',*,*,#579,.F.);
#739=ORIENTED_EDGE('',*,*,#544,.T.);
#740=ORIENTED_EDGE('',*,*,#580,.T.);
#741=ORIENTED_EDGE('',*,*,#581,.T.);
#742=ORIENTED_EDGE('',*,*,#582,.T.);
#743=ORIENTED_EDGE('',*,*,#583,.T.);
#744=ORIENTED_EDGE('',*,*,#584,.T.);
#745=ORIENTED_EDGE('',*,*,#584,.F.);
#746=ORIENTED_EDGE('',*,*,#585,.T.);
#747=ORIENTED_EDGE('',*,*,#586,.F.);
#748=ORIENTED_EDGE('',*,*,#578,.F.);
#749=ORIENTED_EDGE('',*,*,#587,.T.);
#750=ORIENTED_EDGE('',*,*,#588,.F.);
#751=ORIENTED_EDGE('',*,*,#583,.F.);
#752=ORIENTED_EDGE('',*,*,#589,.F.);
#753=ORIENTED_EDGE('',*,*,#590,.F.);
#754=ORIENTED_EDGE('',*,*,#585,.F.);
#755=ORIENTED_EDGE('',*,*,#591,.T.);
#756=ORIENTED_EDGE('',*,*,#592,.T.);
#757=ORIENTED_EDGE('',*,*,#593,.T.);
#758=ORIENTED_EDGE('',*,*,#594,.T.);
#759=ORIENTED_EDGE('',*,*,#532,.F.);
#760=ORIENTED_EDGE('',*,*,#539,.T.);
#761=ORIENTED_EDGE('',*,*,#595,.F.);
#762=ORIENTED_EDGE('',*,*,#596,.T.);
#763=ORIENTED_EDGE('',*,*,#597,.T.);
#764=ORIENTED_EDGE('',*,*,#598,.T.);
#765=ORIENTED_EDGE('',*,*,#599,.T.);
#766=ORIENTED_EDGE('',*,*,#600,.T.);
#767=ORIENTED_EDGE('',*,*,#601,.T.);
#768=ORIENTED_EDGE('',*,*,#602,.T.);
#769=ORIENTED_EDGE('',*,*,#603,.T.);
#770=ORIENTED_EDGE('',*,*,#604,.T.);
#771=ORIENTED_EDGE('',*,*,#605,.T.);
#772=ORIENTED_EDGE('',*,*,#606,.T.);
#773=ORIENTED_EDGE('',*,*,#607,.T.);
#774=ORIENTED_EDGE('',*,*,#608,.T.);
#775=ORIENTED_EDGE('',*,*,#594,.F.);
#776=ORIENTED_EDGE('',*,*,#609,.T.);
#777=ORIENTED_EDGE('',*,*,#610,.T.);
#778=ORIENTED_EDGE('',*,*,#611,.T.);
#779=ORIENTED_EDGE('',*,*,#612,.T.);
#780=ORIENTED_EDGE('',*,*,#613,.T.);
#781=ORIENTED_EDGE('',*,*,#614,.T.);
#782=ORIENTED_EDGE('',*,*,#615,.T.);
#783=ORIENTED_EDGE('',*,*,#616,.T.);
#784=ORIENTED_EDGE('',*,*,#617,.T.);
#785=ORIENTED_EDGE('',*,*,#618,.T.);
#786=ORIENTED_EDGE('',*,*,#619,.T.);
#787=ORIENTED_EDGE('',*,*,#581,.F.);
#788=ORIENTED_EDGE('',*,*,#620,.F.);
#789=ORIENTED_EDGE('',*,*,#621,.F.);
#790=ORIENTED_EDGE('',*,*,#622,.F.);
#791=ORIENTED_EDGE('',*,*,#623,.F.);
#792=ORIENTED_EDGE('',*,*,#624,.F.);
#793=ORIENTED_EDGE('',*,*,#625,.F.);
#794=ORIENTED_EDGE('',*,*,#626,.T.);
#795=ORIENTED_EDGE('',*,*,#557,.T.);
#796=ORIENTED_EDGE('',*,*,#627,.T.);
#797=ORIENTED_EDGE('',*,*,#628,.T.);
#798=ORIENTED_EDGE('',*,*,#592,.F.);
#799=ORIENTED_EDGE('',*,*,#629,.F.);
#800=ORIENTED_EDGE('',*,*,#628,.F.);
#801=ORIENTED_EDGE('',*,*,#630,.T.);
#802=ORIENTED_EDGE('',*,*,#586,.T.);
#803=ORIENTED_EDGE('',*,*,#590,.T.);
#804=ORIENTED_EDGE('',*,*,#631,.T.);
#805=ORIENTED_EDGE('',*,*,#545,.T.);
#806=ORIENTED_EDGE('',*,*,#579,.T.);
#807=ORIENTED_EDGE('',*,*,#577,.F.);
#808=ORIENTED_EDGE('',*,*,#540,.T.);
#809=ORIENTED_EDGE('',*,*,#632,.F.);
#810=ORIENTED_EDGE('',*,*,#587,.F.);
#811=ORIENTED_EDGE('',*,*,#533,.F.);
#812=ORIENTED_EDGE('',*,*,#620,.T.);
#813=ORIENTED_EDGE('',*,*,#580,.F.);
#814=ORIENTED_EDGE('',*,*,#588,.T.);
#815=ORIENTED_EDGE('',*,*,#632,.T.);
#816=ORIENTED_EDGE('',*,*,#633,.T.);
#817=ORIENTED_EDGE('',*,*,#634,.T.);
#818=ORIENTED_EDGE('',*,*,#635,.T.);
#819=ORIENTED_EDGE('',*,*,#625,.T.);
#820=ORIENTED_EDGE('',*,*,#634,.F.);
#821=ORIENTED_EDGE('',*,*,#636,.F.);
#822=ORIENTED_EDGE('',*,*,#637,.F.);
#823=ORIENTED_EDGE('',*,*,#638,.T.);
#824=ORIENTED_EDGE('',*,*,#639,.T.);
#825=ORIENTED_EDGE('',*,*,#633,.F.);
#826=ORIENTED_EDGE('',*,*,#624,.T.);
#827=ORIENTED_EDGE('',*,*,#640,.T.);
#828=ORIENTED_EDGE('',*,*,#623,.T.);
#829=ORIENTED_EDGE('',*,*,#641,.T.);
#830=ORIENTED_EDGE('',*,*,#642,.T.);
#831=ORIENTED_EDGE('',*,*,#640,.F.);
#832=ORIENTED_EDGE('',*,*,#622,.T.);
#833=ORIENTED_EDGE('',*,*,#643,.T.);
#834=ORIENTED_EDGE('',*,*,#644,.T.);
#835=ORIENTED_EDGE('',*,*,#641,.F.);
#836=ORIENTED_EDGE('',*,*,#621,.T.);
#837=ORIENTED_EDGE('',*,*,#635,.F.);
#838=ORIENTED_EDGE('',*,*,#645,.T.);
#839=ORIENTED_EDGE('',*,*,#643,.F.);
#840=ORIENTED_EDGE('',*,*,#639,.F.);
#841=ORIENTED_EDGE('',*,*,#646,.F.);
#842=ORIENTED_EDGE('',*,*,#647,.F.);
#843=ORIENTED_EDGE('',*,*,#636,.T.);
#844=ORIENTED_EDGE('',*,*,#642,.F.);
#845=ORIENTED_EDGE('',*,*,#648,.F.);
#846=ORIENTED_EDGE('',*,*,#649,.F.);
#847=ORIENTED_EDGE('',*,*,#646,.T.);
#848=ORIENTED_EDGE('',*,*,#644,.F.);
#849=ORIENTED_EDGE('',*,*,#650,.F.);
#850=ORIENTED_EDGE('',*,*,#651,.F.);
#851=ORIENTED_EDGE('',*,*,#648,.T.);
#852=ORIENTED_EDGE('',*,*,#645,.F.);
#853=ORIENTED_EDGE('',*,*,#638,.F.);
#854=ORIENTED_EDGE('',*,*,#652,.F.);
#855=ORIENTED_EDGE('',*,*,#650,.T.);
#856=ORIENTED_EDGE('',*,*,#574,.T.);
#857=ORIENTED_EDGE('',*,*,#653,.T.);
#858=ORIENTED_EDGE('',*,*,#651,.T.);
#859=ORIENTED_EDGE('',*,*,#654,.F.);
#860=ORIENTED_EDGE('',*,*,#647,.T.);
#861=ORIENTED_EDGE('',*,*,#655,.T.);
#862=ORIENTED_EDGE('',*,*,#572,.T.);
#863=ORIENTED_EDGE('',*,*,#656,.T.);
#864=ORIENTED_EDGE('',*,*,#573,.T.);
#865=ORIENTED_EDGE('',*,*,#655,.F.);
#866=ORIENTED_EDGE('',*,*,#649,.T.);
#867=ORIENTED_EDGE('',*,*,#653,.F.);
#868=ORIENTED_EDGE('',*,*,#637,.T.);
#869=ORIENTED_EDGE('',*,*,#656,.F.);
#870=ORIENTED_EDGE('',*,*,#576,.T.);
#871=ORIENTED_EDGE('',*,*,#657,.T.);
#872=ORIENTED_EDGE('',*,*,#652,.T.);
#873=ORIENTED_EDGE('',*,*,#657,.F.);
#874=ORIENTED_EDGE('',*,*,#575,.T.);
#875=ORIENTED_EDGE('',*,*,#654,.T.);
#876=ORIENTED_EDGE('',*,*,#595,.T.);
#877=ORIENTED_EDGE('',*,*,#538,.T.);
#878=ORIENTED_EDGE('',*,*,#571,.T.);
#879=ORIENTED_EDGE('',*,*,#658,.T.);
#880=ORIENTED_EDGE('',*,*,#658,.F.);
#881=ORIENTED_EDGE('',*,*,#570,.F.);
#882=ORIENTED_EDGE('',*,*,#659,.T.);
#883=ORIENTED_EDGE('',*,*,#596,.F.);
#884=ORIENTED_EDGE('',*,*,#591,.F.);
#885=ORIENTED_EDGE('',*,*,#660,.T.);
#886=ORIENTED_EDGE('',*,*,#626,.F.);
#887=ORIENTED_EDGE('',*,*,#629,.T.);
#888=ORIENTED_EDGE('',*,*,#566,.F.);
#889=ORIENTED_EDGE('',*,*,#661,.T.);
#890=ORIENTED_EDGE('',*,*,#600,.F.);
#891=ORIENTED_EDGE('',*,*,#662,.F.);
#892=ORIENTED_EDGE('',*,*,#567,.F.);
#893=ORIENTED_EDGE('',*,*,#662,.T.);
#894=ORIENTED_EDGE('',*,*,#599,.F.);
#895=ORIENTED_EDGE('',*,*,#663,.F.);
#896=ORIENTED_EDGE('',*,*,#568,.F.);
#897=ORIENTED_EDGE('',*,*,#663,.T.);
#898=ORIENTED_EDGE('',*,*,#598,.F.);
#899=ORIENTED_EDGE('',*,*,#664,.F.);
#900=ORIENTED_EDGE('',*,*,#569,.T.);
#901=ORIENTED_EDGE('',*,*,#664,.T.);
#902=ORIENTED_EDGE('',*,*,#597,.F.);
#903=ORIENTED_EDGE('',*,*,#659,.F.);
#904=ORIENTED_EDGE('',*,*,#546,.F.);
#905=ORIENTED_EDGE('',*,*,#631,.F.);
#906=ORIENTED_EDGE('',*,*,#589,.T.);
#907=ORIENTED_EDGE('',*,*,#582,.F.);
#908=ORIENTED_EDGE('',*,*,#619,.F.);
#909=ORIENTED_EDGE('',*,*,#665,.F.);
#910=ORIENTED_EDGE('',*,*,#547,.F.);
#911=ORIENTED_EDGE('',*,*,#665,.T.);
#912=ORIENTED_EDGE('',*,*,#618,.F.);
#913=ORIENTED_EDGE('',*,*,#666,.F.);
#914=ORIENTED_EDGE('',*,*,#548,.T.);
#915=ORIENTED_EDGE('',*,*,#666,.T.);
#916=ORIENTED_EDGE('',*,*,#617,.F.);
#917=ORIENTED_EDGE('',*,*,#667,.F.);
#918=ORIENTED_EDGE('',*,*,#549,.T.);
#919=ORIENTED_EDGE('',*,*,#667,.T.);
#920=ORIENTED_EDGE('',*,*,#616,.F.);
#921=ORIENTED_EDGE('',*,*,#668,.F.);
#922=ORIENTED_EDGE('',*,*,#550,.F.);
#923=ORIENTED_EDGE('',*,*,#668,.T.);
#924=ORIENTED_EDGE('',*,*,#615,.F.);
#925=ORIENTED_EDGE('',*,*,#669,.F.);
#926=ORIENTED_EDGE('',*,*,#551,.F.);
#927=ORIENTED_EDGE('',*,*,#669,.T.);
#928=ORIENTED_EDGE('',*,*,#614,.F.);
#929=ORIENTED_EDGE('',*,*,#670,.F.);
#930=ORIENTED_EDGE('',*,*,#552,.T.);
#931=ORIENTED_EDGE('',*,*,#670,.T.);
#932=ORIENTED_EDGE('',*,*,#613,.F.);
#933=ORIENTED_EDGE('',*,*,#671,.F.);
#934=ORIENTED_EDGE('',*,*,#553,.T.);
#935=ORIENTED_EDGE('',*,*,#671,.T.);
#936=ORIENTED_EDGE('',*,*,#612,.F.);
#937=ORIENTED_EDGE('',*,*,#672,.F.);
#938=ORIENTED_EDGE('',*,*,#554,.F.);
#939=ORIENTED_EDGE('',*,*,#672,.T.);
#940=ORIENTED_EDGE('',*,*,#611,.F.);
#941=ORIENTED_EDGE('',*,*,#673,.F.);
#942=ORIENTED_EDGE('',*,*,#555,.F.);
#943=ORIENTED_EDGE('',*,*,#673,.T.);
#944=ORIENTED_EDGE('',*,*,#610,.F.);
#945=ORIENTED_EDGE('',*,*,#674,.F.);
#946=ORIENTED_EDGE('',*,*,#556,.T.);
#947=ORIENTED_EDGE('',*,*,#674,.T.);
#948=ORIENTED_EDGE('',*,*,#609,.F.);
#949=ORIENTED_EDGE('',*,*,#593,.F.);
#950=ORIENTED_EDGE('',*,*,#630,.F.);
#951=ORIENTED_EDGE('',*,*,#627,.F.);
#952=ORIENTED_EDGE('',*,*,#660,.F.);
#953=ORIENTED_EDGE('',*,*,#608,.F.);
#954=ORIENTED_EDGE('',*,*,#675,.F.);
#955=ORIENTED_EDGE('',*,*,#558,.F.);
#956=ORIENTED_EDGE('',*,*,#559,.F.);
#957=ORIENTED_EDGE('',*,*,#675,.T.);
#958=ORIENTED_EDGE('',*,*,#607,.F.);
#959=ORIENTED_EDGE('',*,*,#676,.F.);
#960=ORIENTED_EDGE('',*,*,#560,.F.);
#961=ORIENTED_EDGE('',*,*,#676,.T.);
#962=ORIENTED_EDGE('',*,*,#606,.F.);
#963=ORIENTED_EDGE('',*,*,#677,.F.);
#964=ORIENTED_EDGE('',*,*,#561,.T.);
#965=ORIENTED_EDGE('',*,*,#677,.T.);
#966=ORIENTED_EDGE('',*,*,#605,.F.);
#967=ORIENTED_EDGE('',*,*,#678,.F.);
#968=ORIENTED_EDGE('',*,*,#562,.F.);
#969=ORIENTED_EDGE('',*,*,#678,.T.);
#970=ORIENTED_EDGE('',*,*,#604,.F.);
#971=ORIENTED_EDGE('',*,*,#679,.F.);
#972=ORIENTED_EDGE('',*,*,#563,.F.);
#973=ORIENTED_EDGE('',*,*,#679,.T.);
#974=ORIENTED_EDGE('',*,*,#603,.F.);
#975=ORIENTED_EDGE('',*,*,#680,.F.);
#976=ORIENTED_EDGE('',*,*,#564,.F.);
#977=ORIENTED_EDGE('',*,*,#680,.T.);
#978=ORIENTED_EDGE('',*,*,#602,.F.);
#979=ORIENTED_EDGE('',*,*,#681,.F.);
#980=ORIENTED_EDGE('',*,*,#565,.T.);
#981=ORIENTED_EDGE('',*,*,#681,.T.);
#982=ORIENTED_EDGE('',*,*,#601,.F.);
#983=ORIENTED_EDGE('',*,*,#661,.F.);
#984=PLANE('',#1112);
#985=PLANE('',#1113);
#986=PLANE('',#1114);
#987=PLANE('',#1115);
#988=PLANE('',#1116);
#989=PLANE('',#1117);
#990=PLANE('',#1118);
#991=PLANE('',#1119);
#992=PLANE('',#1120);
#993=PLANE('',#1121);
#994=PLANE('',#1122);
#995=PLANE('',#1123);
#996=PLANE('',#1124);
#997=PLANE('',#1125);
#998=PLANE('',#1126);
#999=PLANE('',#1127);
#1000=PLANE('',#1128);
#1001=PLANE('',#1129);
#1002=PLANE('',#1130);
#1003=PLANE('',#1131);
#1004=PLANE('',#1132);
#1005=PLANE('',#1133);
#1006=PLANE('',#1134);
#1007=PLANE('',#1135);
#1008=PLANE('',#1136);
#1009=PLANE('',#1137);
#1010=PLANE('',#1138);
#1011=PLANE('',#1139);
#1012=PLANE('',#1140);
#1013=PLANE('',#1141);
#1014=PLANE('',#1142);
#1015=PLANE('',#1143);
#1016=PLANE('',#1144);
#1017=PLANE('',#1145);
#1018=PLANE('',#1146);
#1019=PLANE('',#1147);
#1020=PLANE('',#1148);
#1021=PLANE('',#1149);
#1022=PLANE('',#1150);
#1023=PLANE('',#1151);
#1024=PLANE('',#1152);
#1025=PLANE('',#1153);
#1026=PLANE('',#1154);
#1027=PLANE('',#1155);
#1028=PLANE('',#1156);
#1029=PLANE('',#1157);
#1030=PLANE('',#1158);
#1031=PLANE('',#1159);
#1032=PLANE('',#1160);
#1033=PLANE('',#1161);
#1034=PLANE('',#1162);
#1035=PLANE('',#1163);
#1036=PLANE('',#1164);
#1037=PLANE('',#1165);
#1038=PLANE('',#1166);
#1039=PLANE('',#1167);
#1040=PLANE('',#1168);
#1041=ADVANCED_FACE('',(#17),#984,.T.);
#1042=ADVANCED_FACE('',(#18),#985,.T.);
#1043=ADVANCED_FACE('',(#19),#986,.T.);
#1044=ADVANCED_FACE('',(#20),#987,.T.);
#1045=ADVANCED_FACE('',(#21,#15),#988,.F.);
#1046=ADVANCED_FACE('',(#22),#989,.T.);
#1047=ADVANCED_FACE('',(#23),#990,.T.);
#1048=ADVANCED_FACE('',(#24),#991,.T.);
#1049=ADVANCED_FACE('',(#25),#992,.T.);
#1050=ADVANCED_FACE('',(#26),#993,.T.);
#1051=ADVANCED_FACE('',(#27,#16),#994,.T.);
#1052=ADVANCED_FACE('',(#28),#995,.T.);
#1053=ADVANCED_FACE('',(#29),#996,.T.);
#1054=ADVANCED_FACE('',(#30),#997,.T.);
#1055=ADVANCED_FACE('',(#31),#998,.T.);
#1056=ADVANCED_FACE('',(#32),#999,.T.);
#1057=ADVANCED_FACE('',(#33),#1000,.T.);
#1058=ADVANCED_FACE('',(#34),#1001,.T.);
#1059=ADVANCED_FACE('',(#35),#1002,.T.);
#1060=ADVANCED_FACE('',(#36),#1003,.T.);
#1061=ADVANCED_FACE('',(#37),#1004,.T.);
#1062=ADVANCED_FACE('',(#38),#1005,.T.);
#1063=ADVANCED_FACE('',(#39),#1006,.T.);
#1064=ADVANCED_FACE('',(#40),#1007,.T.);
#1065=ADVANCED_FACE('',(#41),#1008,.T.);
#1066=ADVANCED_FACE('',(#42),#1009,.T.);
#1067=ADVANCED_FACE('',(#43),#1010,.T.);
#1068=ADVANCED_FACE('',(#44),#1011,.T.);
#1069=ADVANCED_FACE('',(#45),#1012,.T.);
#1070=ADVANCED_FACE('',(#46),#1013,.T.);
#1071=ADVANCED_FACE('',(#47),#1014,.T.);
#1072=ADVANCED_FACE('',(#48),#1015,.T.);
#1073=ADVANCED_FACE('',(#49),#1016,.T.);
#1074=ADVANCED_FACE('',(#50),#1017,.T.);
#1075=ADVANCED_FACE('',(#51),#1018,.T.);
#1076=ADVANCED_FACE('',(#52),#1019,.T.);
#1077=ADVANCED_FACE('',(#53),#1020,.T.);
#1078=ADVANCED_FACE('',(#54),#1021,.T.);
#1079=ADVANCED_FACE('',(#55),#1022,.T.);
#1080=ADVANCED_FACE('',(#56),#1023,.T.);
#1081=ADVANCED_FACE('',(#57),#1024,.T.);
#1082=ADVANCED_FACE('',(#58),#1025,.T.);
#1083=ADVANCED_FACE('',(#59),#1026,.T.);
#1084=ADVANCED_FACE('',(#60),#1027,.T.);
#1085=ADVANCED_FACE('',(#61),#1028,.T.);
#1086=ADVANCED_FACE('',(#62),#1029,.T.);
#1087=ADVANCED_FACE('',(#63),#1030,.T.);
#1088=ADVANCED_FACE('',(#64),#1031,.T.);
#1089=ADVANCED_FACE('',(#65),#1032,.T.);
#1090=ADVANCED_FACE('',(#66),#1033,.T.);
#1091=ADVANCED_FACE('',(#67),#1034,.T.);
#1092=ADVANCED_FACE('',(#68),#1035,.T.);
#1093=ADVANCED_FACE('',(#69),#1036,.T.);
#1094=ADVANCED_FACE('',(#70),#1037,.T.);
#1095=ADVANCED_FACE('',(#71),#1038,.T.);
#1096=ADVANCED_FACE('',(#72),#1039,.T.);
#1097=ADVANCED_FACE('',(#73),#1040,.T.);
#1098=CLOSED_SHELL('',(#1041,#1042,#1043,#1044,#1045,#1046,#1047,#1048,
#1049,#1050,#1051,#1052,#1053,#1054,#1055,#1056,#1057,#1058,#1059,#1060,
#1061,#1062,#1063,#1064,#1065,#1066,#1067,#1068,#1069,#1070,#1071,#1072,
#1073,#1074,#1075,#1076,#1077,#1078,#1079,#1080,#1081,#1082,#1083,#1084,
#1085,#1086,#1087,#1088,#1089,#1090,#1091,#1092,#1093,#1094,#1095,#1096,
#1097));
#1099=DERIVED_UNIT_ELEMENT(#1101,1.);
#1100=DERIVED_UNIT_ELEMENT(#1746,-3.);
#1101=(
MASS_UNIT()
NAMED_UNIT(*)
SI_UNIT(.KILO.,.GRAM.)
);
#1102=DERIVED_UNIT((#1099,#1100));
#1103=MEASURE_REPRESENTATION_ITEM('density measure',
POSITIVE_RATIO_MEASURE(7850.),#1102);
#1104=PROPERTY_DEFINITION_REPRESENTATION(#1109,#1106);
#1105=PROPERTY_DEFINITION_REPRESENTATION(#1110,#1107);
#1106=REPRESENTATION('material name',(#1108),#1743);
#1107=REPRESENTATION('density',(#1103),#1743);
#1108=DESCRIPTIVE_REPRESENTATION_ITEM('Steel','Steel');
#1109=PROPERTY_DEFINITION('material property','material name',#1753);
#1110=PROPERTY_DEFINITION('material property','density of part',#1753);
#1111=AXIS2_PLACEMENT_3D('',#1436,#1169,#1170);
#1112=AXIS2_PLACEMENT_3D('',#1437,#1171,#1172);
#1113=AXIS2_PLACEMENT_3D('',#1446,#1177,#1178);
#1114=AXIS2_PLACEMENT_3D('',#1456,#1184,#1185);
#1115=AXIS2_PLACEMENT_3D('',#1460,#1188,#1189);
#1116=AXIS2_PLACEMENT_3D('',#1464,#1192,#1193);
#1117=AXIS2_PLACEMENT_3D('',#1530,#1227,#1228);
#1118=AXIS2_PLACEMENT_3D('',#1536,#1232,#1233);
#1119=AXIS2_PLACEMENT_3D('',#1547,#1239,#1240);
#1120=AXIS2_PLACEMENT_3D('',#1554,#1245,#1246);
#1121=AXIS2_PLACEMENT_3D('',#1558,#1249,#1250);
#1122=AXIS2_PLACEMENT_3D('',#1567,#1255,#1256);
#1123=AXIS2_PLACEMENT_3D('',#1627,#1288,#1289);
#1124=AXIS2_PLACEMENT_3D('',#1633,#1293,#1294);
#1125=AXIS2_PLACEMENT_3D('',#1636,#1297,#1298);
#1126=AXIS2_PLACEMENT_3D('',#1638,#1300,#1301);
#1127=AXIS2_PLACEMENT_3D('',#1640,#1303,#1304);
#1128=AXIS2_PLACEMENT_3D('',#1641,#1305,#1306);
#1129=AXIS2_PLACEMENT_3D('',#1647,#1310,#1311);
#1130=AXIS2_PLACEMENT_3D('',#1653,#1315,#1316);
#1131=AXIS2_PLACEMENT_3D('',#1657,#1319,#1320);
#1132=AXIS2_PLACEMENT_3D('',#1661,#1323,#1324);
#1133=AXIS2_PLACEMENT_3D('',#1665,#1327,#1328);
#1134=AXIS2_PLACEMENT_3D('',#1667,#1330,#1331);
#1135=AXIS2_PLACEMENT_3D('',#1671,#1334,#1335);
#1136=AXIS2_PLACEMENT_3D('',#1675,#1338,#1339);
#1137=AXIS2_PLACEMENT_3D('',#1679,#1342,#1343);
#1138=AXIS2_PLACEMENT_3D('',#1681,#1345,#1346);
#1139=AXIS2_PLACEMENT_3D('',#1684,#1349,#1350);
#1140=AXIS2_PLACEMENT_3D('',#1687,#1353,#1354);
#1141=AXIS2_PLACEMENT_3D('',#1688,#1355,#1356);
#1142=AXIS2_PLACEMENT_3D('',#1690,#1358,#1359);
#1143=AXIS2_PLACEMENT_3D('',#1691,#1360,#1361);
#1144=AXIS2_PLACEMENT_3D('',#1693,#1363,#1364);
#1145=AXIS2_PLACEMENT_3D('',#1695,#1366,#1367);
#1146=AXIS2_PLACEMENT_3D('',#1697,#1369,#1370);
#1147=AXIS2_PLACEMENT_3D('',#1700,#1373,#1374);
#1148=AXIS2_PLACEMENT_3D('',#1702,#1376,#1377);
#1149=AXIS2_PLACEMENT_3D('',#1704,#1379,#1380);
#1150=AXIS2_PLACEMENT_3D('',#1705,#1381,#1382);
#1151=AXIS2_PLACEMENT_3D('',#1707,#1384,#1385);
#1152=AXIS2_PLACEMENT_3D('',#1709,#1387,#1388);
#1153=AXIS2_PLACEMENT_3D('',#1711,#1390,#1391);
#1154=AXIS2_PLACEMENT_3D('',#1713,#1393,#1394);
#1155=AXIS2_PLACEMENT_3D('',#1715,#1396,#1397);
#1156=AXIS2_PLACEMENT_3D('',#1717,#1399,#1400);
#1157=AXIS2_PLACEMENT_3D('',#1719,#1402,#1403);
#1158=AXIS2_PLACEMENT_3D('',#1721,#1405,#1406);
#1159=AXIS2_PLACEMENT_3D('',#1723,#1408,#1409);
#1160=AXIS2_PLACEMENT_3D('',#1725,#1411,#1412);
#1161=AXIS2_PLACEMENT_3D('',#1726,#1413,#1414);
#1162=AXIS2_PLACEMENT_3D('',#1728,#1416,#1417);
#1163=AXIS2_PLACEMENT_3D('',#1730,#1419,#1420);
#1164=AXIS2_PLACEMENT_3D('',#1732,#1422,#1423);
#1165=AXIS2_PLACEMENT_3D('',#1734,#1425,#1426);
#1166=AXIS2_PLACEMENT_3D('',#1736,#1428,#1429);
#1167=AXIS2_PLACEMENT_3D('',#1738,#1431,#1432);
#1168=AXIS2_PLACEMENT_3D('',#1740,#1434,#1435);
#1169=DIRECTION('axis',(0.,0.,1.));
#1170=DIRECTION('refdir',(1.,0.,0.));
#1171=DIRECTION('center_axis',(0.5,0.707106781186548,0.5));
#1172=DIRECTION('ref_axis',(0.707106781186547,0.,-0.707106781186547));
#1173=DIRECTION('',(0.,0.577350269189625,-0.816496580927726));
#1174=DIRECTION('',(-0.707106781186548,0.,0.707106781186548));
#1175=DIRECTION('',(0.281084637714822,-0.678598344545847,0.678598344545847));
#1176=DIRECTION('',(0.707106781186548,0.,-0.707106781186548));
#1177=DIRECTION('center_axis',(1.,0.,0.));
#1178=DIRECTION('ref_axis',(0.,0.,-1.));
#1179=DIRECTION('',(0.,1.,0.));
#1180=DIRECTION('',(0.,0.57735026918963,0.816496580927723));
#1181=DIRECTION('',(0.,0.,1.));
#1182=DIRECTION('',(0.,-1.,0.));
#1183=DIRECTION('',(0.,0.,-1.));
#1184=DIRECTION('center_axis',(0.707106781186548,0.,0.707106781186548));
#1185=DIRECTION('ref_axis',(0.707106781186548,0.,-0.707106781186548));
#1186=DIRECTION('',(0.,1.,0.));
#1187=DIRECTION('',(-0.707106781186548,0.,0.707106781186548));
#1188=DIRECTION('center_axis',(0.500000000000003,-0.707106781186543,0.500000000000003));
#1189=DIRECTION('ref_axis',(0.707106781186547,0.,-0.707106781186547));
#1190=DIRECTION('',(-0.281084637714813,-0.67859834454585,-0.678598344545847));
#1191=DIRECTION('',(0.707106781186548,0.,-0.707106781186548));
#1192=DIRECTION('center_axis',(0.,1.,0.));
#1193=DIRECTION('ref_axis',(1.,0.,0.));
#1194=DIRECTION('',(1.,0.,0.));
#1195=DIRECTION('',(0.,0.,1.));
#1196=DIRECTION('',(-0.866025403784439,0.,0.5));
#1197=DIRECTION('',(6.16790552896828E-17,0.,-1.));
#1198=DIRECTION('',(-0.866025403784439,0.,-0.5));
#1199=DIRECTION('',(0.,0.,1.));
#1200=DIRECTION('',(-0.866025403784439,0.,0.5));
#1201=DIRECTION('',(6.16790552896828E-17,0.,-1.));
#1202=DIRECTION('',(-0.866025403784439,0.,-0.5));
#1203=DIRECTION('',(0.,0.,1.));
#1204=DIRECTION('',(-0.866025403784439,0.,0.5));
#1205=DIRECTION('',(6.16790552896828E-17,0.,-1.));
#1206=DIRECTION('',(-0.866025403784439,0.,-0.5));
#1207=DIRECTION('',(0.,0.,1.));
#1208=DIRECTION('',(1.,0.,0.));
#1209=DIRECTION('',(-0.5,0.,-0.866025403784439));
#1210=DIRECTION('',(1.,0.,6.16790565151356E-17));
#1211=DIRECTION('',(0.5,0.,-0.866025403784439));
#1212=DIRECTION('',(1.,0.,0.));
#1213=DIRECTION('',(-0.5,0.,-0.866025403784439));
#1214=DIRECTION('',(1.,0.,6.16790565151356E-17));
#1215=DIRECTION('',(0.5,0.,-0.866025403784439));
#1216=DIRECTION('',(1.,0.,0.));
#1217=DIRECTION('',(-0.5,0.,-0.866025403784439));
#1218=DIRECTION('',(1.,0.,6.16790565151356E-17));
#1219=DIRECTION('',(0.5,0.,-0.866025403784439));
#1220=DIRECTION('',(1.,0.,0.));
#1221=DIRECTION('',(-0.707106781186553,0.,-0.707106781186542));
#1222=DIRECTION('',(1.,0.,0.));
#1223=DIRECTION('',(0.,0.,-1.));
#1224=DIRECTION('',(-1.,0.,0.));
#1225=DIRECTION('',(-0.707106781186548,0.,0.707106781186548));
#1226=DIRECTION('',(0.,0.,1.));
#1227=DIRECTION('center_axis',(0.,-0.707106781186546,0.707106781186549));
#1228=DIRECTION('ref_axis',(1.,0.,0.));
#1229=DIRECTION('',(-1.,0.,0.));
#1230=DIRECTION('',(-0.577350269189627,-0.577350269189627,-0.577350269189624));
#1231=DIRECTION('',(-0.577350269189625,0.577350269189627,0.577350269189625));
#1232=DIRECTION('center_axis',(-0.707106781186546,0.707106781186549,0.));
#1233=DIRECTION('ref_axis',(0.,0.,1.));
#1234=DIRECTION('',(0.577350269189628,0.577350269189625,-0.577350269189625));
#1235=DIRECTION('',(0.,0.,-1.));
#1236=DIRECTION('',(0.654653670707978,0.654653670707976,-0.377964473009228));
#1237=DIRECTION('',(0.,0.,1.));
#1238=DIRECTION('',(0.577350269189627,0.577350269189625,0.577350269189625));
#1239=DIRECTION('center_axis',(-0.707106781186546,0.,0.707106781186549));
#1240=DIRECTION('ref_axis',(0.707106781186549,0.,0.707106781186546));
#1241=DIRECTION('',(0.,-1.,0.));
#1242=DIRECTION('',(-0.577350269189626,0.577350269189628,-0.577350269189624));
#1243=DIRECTION('',(0.,1.,0.));
#1244=DIRECTION('',(0.577350269189627,-0.577350269189625,0.577350269189625));
#1245=DIRECTION('center_axis',(-1.,0.,0.));
#1246=DIRECTION('ref_axis',(0.,0.,1.));
#1247=DIRECTION('',(0.,1.,0.));
#1248=DIRECTION('',(0.,0.,-1.));
#1249=DIRECTION('center_axis',(-0.707106781186546,0.707106781186549,0.));
#1250=DIRECTION('ref_axis',(0.,0.,1.));
#1251=DIRECTION('',(-0.577350269189627,-0.577350269189624,0.577350269189626));
#1252=DIRECTION('',(0.,0.,1.));
#1253=DIRECTION('',(-0.654653670707978,-0.654653670707976,-0.377964473009228));
#1254=DIRECTION('',(0.,0.,-1.));
#1255=DIRECTION('center_axis',(0.,1.,0.));
#1256=DIRECTION('ref_axis',(0.,0.,1.));
#1257=DIRECTION('',(0.707106781186553,0.,0.707106781186542));
#1258=DIRECTION('',(-1.,0.,0.));
#1259=DIRECTION('',(0.5,0.,-0.866025403784439));
#1260=DIRECTION('',(-1.,0.,-6.16790565151356E-17));
#1261=DIRECTION('',(0.5,0.,0.866025403784439));
#1262=DIRECTION('',(-1.,0.,0.));
#1263=DIRECTION('',(0.5,0.,-0.866025403784439));
#1264=DIRECTION('',(-1.,0.,-6.16790565151356E-17));
#1265=DIRECTION('',(0.5,0.,0.866025403784439));
#1266=DIRECTION('',(-1.,0.,0.));
#1267=DIRECTION('',(0.5,0.,-0.866025403784439));
#1268=DIRECTION('',(-1.,0.,-6.16790565151356E-17));
#1269=DIRECTION('',(0.5,0.,0.866025403784439));
#1270=DIRECTION('',(-1.,0.,0.));
#1271=DIRECTION('',(-0.866025403784439,0.,-0.5));
#1272=DIRECTION('',(-6.16790552896828E-17,0.,1.));
#1273=DIRECTION('',(0.866025403784439,0.,-0.5));
#1274=DIRECTION('',(0.,0.,1.));
#1275=DIRECTION('',(-0.866025403784439,0.,-0.5));
#1276=DIRECTION('',(-6.16790552896828E-17,0.,1.));
#1277=DIRECTION('',(0.866025403784439,0.,-0.5));
#1278=DIRECTION('',(0.,0.,1.));
#1279=DIRECTION('',(-0.866025403784439,0.,-0.5));
#1280=DIRECTION('',(-6.16790552896828E-17,0.,1.));
#1281=DIRECTION('',(0.866025403784439,0.,-0.5));
#1282=DIRECTION('',(-1.,0.,0.));
#1283=DIRECTION('',(0.707106781186548,0.,-0.707106781186548));
#1284=DIRECTION('',(1.,0.,0.));
#1285=DIRECTION('',(0.,0.,1.));
#1286=DIRECTION('',(-1.,0.,0.));
#1287=DIRECTION('',(0.,0.,-1.));
#1288=DIRECTION('center_axis',(-0.707106781186549,-0.707106781186546,0.));
#1289=DIRECTION('ref_axis',(0.,0.,1.));
#1290=DIRECTION('',(0.577350269189625,-0.577350269189627,-0.577350269189625));
#1291=DIRECTION('',(0.654653670707976,-0.654653670707979,0.377964473009227));
#1292=DIRECTION('',(0.,0.,-1.));
#1293=DIRECTION('center_axis',(-1.,0.,0.));
#1294=DIRECTION('ref_axis',(0.,0.,1.));
#1295=DIRECTION('',(0.,1.,0.));
#1296=DIRECTION('',(0.,1.,0.));
#1297=DIRECTION('center_axis',(-0.707106781186549,-0.707106781186546,0.));
#1298=DIRECTION('ref_axis',(0.,0.,1.));
#1299=DIRECTION('',(-0.654653670707976,0.654653670707979,0.377964473009227));
#1300=DIRECTION('center_axis',(0.,0.,1.));
#1301=DIRECTION('ref_axis',(1.,0.,0.));
#1302=DIRECTION('',(1.,0.,0.));
#1303=DIRECTION('center_axis',(0.,0.707106781186548,0.707106781186548));
#1304=DIRECTION('ref_axis',(1.,0.,0.));
#1305=DIRECTION('center_axis',(-0.707106781186548,0.707106781186548,0.));
#1306=DIRECTION('ref_axis',(0.,0.,1.));
#1307=DIRECTION('',(0.577350269189625,0.577350269189625,-0.577350269189628));
#1308=DIRECTION('',(0.,0.,1.));
#1309=DIRECTION('',(-0.678598344545847,-0.678598344545847,-0.281084637714822));
#1310=DIRECTION('center_axis',(-1.,0.,0.));
#1311=DIRECTION('ref_axis',(0.,0.,1.));
#1312=DIRECTION('',(0.,1.,0.));
#1313=DIRECTION('',(0.,0.,-1.));
#1314=DIRECTION('',(0.,1.,0.));
#1315=DIRECTION('center_axis',(0.,0.707106781186549,0.707106781186546));
#1316=DIRECTION('ref_axis',(1.,0.,0.));
#1317=DIRECTION('',(1.,0.,0.));
#1318=DIRECTION('',(0.577350269189628,-0.577350269189625,0.577350269189625));
#1319=DIRECTION('center_axis',(0.707106781186546,0.707106781186549,0.));
#1320=DIRECTION('ref_axis',(0.,0.,-1.));
#1321=DIRECTION('',(0.577350269189628,-0.577350269189625,-0.577350269189625));
#1322=DIRECTION('',(0.,0.,-1.));
#1323=DIRECTION('center_axis',(0.,0.707106781186548,-0.707106781186548));
#1324=DIRECTION('ref_axis',(-1.,0.,0.));
#1325=DIRECTION('',(-0.281084637714822,-0.678598344545847,-0.678598344545847));
#1326=DIRECTION('',(-1.,0.,0.));
#1327=DIRECTION('center_axis',(-0.5,0.707106781186548,-0.5));
#1328=DIRECTION('ref_axis',(-0.707106781186547,0.,0.707106781186547));
#1329=DIRECTION('',(-0.707106781186548,0.,0.707106781186548));
#1330=DIRECTION('center_axis',(0.,0.,1.));
#1331=DIRECTION('ref_axis',(1.,0.,0.));
#1332=DIRECTION('',(0.,1.,0.));
#1333=DIRECTION('',(-1.,0.,0.));
#1334=DIRECTION('center_axis',(1.,0.,0.));
#1335=DIRECTION('ref_axis',(0.,0.,-1.));
#1336=DIRECTION('',(0.,1.,0.));
#1337=DIRECTION('',(0.,0.,1.));
#1338=DIRECTION('center_axis',(0.,0.,-1.));
#1339=DIRECTION('ref_axis',(-1.,0.,0.));
#1340=DIRECTION('',(0.,1.,0.));
#1341=DIRECTION('',(1.,0.,0.));
#1342=DIRECTION('center_axis',(-0.707106781186548,0.,-0.707106781186548));
#1343=DIRECTION('ref_axis',(-0.707106781186548,0.,0.707106781186548));
#1344=DIRECTION('',(0.707106781186548,0.,-0.707106781186548));
#1345=DIRECTION('center_axis',(0.,-0.707106781186546,-0.707106781186549));
#1346=DIRECTION('ref_axis',(-1.,0.,0.));
#1347=DIRECTION('',(0.577350269189627,0.577350269189626,-0.577350269189624));
#1348=DIRECTION('',(-0.281084637714821,0.678598344545848,-0.678598344545846));
#1349=DIRECTION('center_axis',(0.,-0.707106781186549,0.707106781186546));
#1350=DIRECTION('ref_axis',(1.,0.,0.));
#1351=DIRECTION('',(-0.577350269189625,-0.577350269189625,-0.577350269189628));
#1352=DIRECTION('',(-0.577350269189624,0.577350269189626,0.577350269189628));
#1353=DIRECTION('center_axis',(0.707106781186547,-0.707106781186548,0.));
#1354=DIRECTION('ref_axis',(0.,0.,-1.));
#1355=DIRECTION('center_axis',(-0.707106781186549,-0.707106781186546,0.));
#1356=DIRECTION('ref_axis',(0.,0.,1.));
#1357=DIRECTION('',(-0.678598344545846,0.678598344545848,-0.281084637714821));
#1358=DIRECTION('center_axis',(-0.500000000000001,-0.707106781186547,-0.500000000000001));
#1359=DIRECTION('ref_axis',(-0.707106781186548,0.,0.707106781186548));
#1360=DIRECTION('center_axis',(0.707106781186542,0.,-0.707106781186553));
#1361=DIRECTION('ref_axis',(-0.707106781186553,0.,-0.707106781186542));
#1362=DIRECTION('',(0.,1.,0.));
#1363=DIRECTION('center_axis',(0.,0.,-1.));
#1364=DIRECTION('ref_axis',(-1.,0.,0.));
#1365=DIRECTION('',(0.,1.,0.));
#1366=DIRECTION('center_axis',(-0.707106781186547,0.,-0.707106781186548));
#1367=DIRECTION('ref_axis',(-0.707106781186548,0.,0.707106781186547));
#1368=DIRECTION('',(0.,-1.,0.));
#1369=DIRECTION('center_axis',(0.,0.,-1.));
#1370=DIRECTION('ref_axis',(-1.,0.,0.));
#1371=DIRECTION('',(0.,1.,0.));
#1372=DIRECTION('',(0.,1.,0.));
#1373=DIRECTION('center_axis',(-0.866025403784439,0.,0.5));
#1374=DIRECTION('ref_axis',(0.5,0.,0.866025403784439));
#1375=DIRECTION('',(0.,1.,0.));
#1376=DIRECTION('center_axis',(6.16790565151356E-17,0.,-1.));
#1377=DIRECTION('ref_axis',(-1.,0.,-6.16790565151356E-17));
#1378=DIRECTION('',(0.,1.,0.));
#1379=DIRECTION('center_axis',(0.866025403784439,0.,0.5));
#1380=DIRECTION('ref_axis',(0.5,0.,-0.866025403784439));
#1381=DIRECTION('center_axis',(0.5,0.,0.866025403784439));
#1382=DIRECTION('ref_axis',(0.866025403784439,0.,-0.5));
#1383=DIRECTION('',(0.,1.,0.));
#1384=DIRECTION('center_axis',(-1.,0.,-6.16790552896828E-17));
#1385=DIRECTION('ref_axis',(-6.16790552896828E-17,0.,1.));
#1386=DIRECTION('',(0.,1.,0.));
#1387=DIRECTION('center_axis',(0.5,0.,-0.866025403784439));
#1388=DIRECTION('ref_axis',(-0.866025403784439,0.,-0.5));
#1389=DIRECTION('',(0.,1.,0.));
#1390=DIRECTION('center_axis',(-1.,0.,0.));
#1391=DIRECTION('ref_axis',(0.,0.,1.));
#1392=DIRECTION('',(0.,1.,0.));
#1393=DIRECTION('center_axis',(0.5,0.,0.866025403784439));
#1394=DIRECTION('ref_axis',(0.866025403784439,0.,-0.5));
#1395=DIRECTION('',(0.,1.,0.));
#1396=DIRECTION('center_axis',(-1.,0.,-6.16790552896828E-17));
#1397=DIRECTION('ref_axis',(-6.16790552896828E-17,0.,1.));
#1398=DIRECTION('',(0.,1.,0.));
#1399=DIRECTION('center_axis',(0.5,0.,-0.866025403784439));
#1400=DIRECTION('ref_axis',(-0.866025403784439,0.,-0.5));
#1401=DIRECTION('',(0.,1.,0.));
#1402=DIRECTION('center_axis',(-1.,0.,0.));
#1403=DIRECTION('ref_axis',(0.,0.,1.));
#1404=DIRECTION('',(0.,1.,0.));
#1405=DIRECTION('center_axis',(0.5,0.,0.866025403784439));
#1406=DIRECTION('ref_axis',(0.866025403784439,0.,-0.5));
#1407=DIRECTION('',(0.,1.,0.));
#1408=DIRECTION('center_axis',(-1.,0.,-6.16790552896828E-17));
#1409=DIRECTION('ref_axis',(-6.16790552896828E-17,0.,1.));
#1410=DIRECTION('',(0.,1.,0.));
#1411=DIRECTION('center_axis',(0.5,0.,-0.866025403784439));
#1412=DIRECTION('ref_axis',(-0.866025403784439,0.,-0.5));
#1413=DIRECTION('center_axis',(0.,0.,-1.));
#1414=DIRECTION('ref_axis',(-1.,0.,0.));
#1415=DIRECTION('',(0.,1.,0.));
#1416=DIRECTION('center_axis',(-0.866025403784439,0.,0.5));
#1417=DIRECTION('ref_axis',(0.5,0.,0.866025403784439));
#1418=DIRECTION('',(0.,1.,0.));
#1419=DIRECTION('center_axis',(6.16790565151356E-17,0.,-1.));
#1420=DIRECTION('ref_axis',(-1.,0.,-6.16790565151356E-17));
#1421=DIRECTION('',(0.,1.,0.));
#1422=DIRECTION('center_axis',(0.866025403784439,0.,0.5));
#1423=DIRECTION('ref_axis',(0.5,0.,-0.866025403784439));
#1424=DIRECTION('',(0.,1.,0.));
#1425=DIRECTION('center_axis',(0.,0.,-1.));
#1426=DIRECTION('ref_axis',(-1.,0.,0.));
#1427=DIRECTION('',(0.,1.,0.));
#1428=DIRECTION('center_axis',(-0.866025403784439,0.,0.5));
#1429=DIRECTION('ref_axis',(0.5,0.,0.866025403784439));
#1430=DIRECTION('',(0.,1.,0.));
#1431=DIRECTION('center_axis',(6.16790565151356E-17,0.,-1.));
#1432=DIRECTION('ref_axis',(-1.,0.,-6.16790565151356E-17));
#1433=DIRECTION('',(0.,1.,0.));
#1434=DIRECTION('center_axis',(0.866025403784439,0.,0.5));
#1435=DIRECTION('ref_axis',(0.5,0.,-0.866025403784439));
#1436=CARTESIAN_POINT('',(0.,0.,0.));
#1437=CARTESIAN_POINT('Origin',(39.6464466094067,149.5,79.6464466094067));
#1438=CARTESIAN_POINT('',(100.,149.,20.));
#1439=CARTESIAN_POINT('',(100.,150.,18.5857864376269));
#1440=CARTESIAN_POINT('',(100.,110.191197709602,74.8839345385364));
#1441=CARTESIAN_POINT('',(19.5857864376269,150.,99.));
#1442=CARTESIAN_POINT('',(39.2928932188135,150.,79.2928932188134));
#1443=CARTESIAN_POINT('',(20.,149.,100.));
#1444=CARTESIAN_POINT('',(18.846663256468,151.784401208218,97.2155987917817));
#1445=CARTESIAN_POINT('',(40.,149.,80.));
#1446=CARTESIAN_POINT('Origin',(100.,0.,20.));
#1447=CARTESIAN_POINT('',(100.,1.,20.));
#1448=CARTESIAN_POINT('',(100.,0.,20.));
#1449=CARTESIAN_POINT('',(100.,0.,18.5857864376269));
#1450=CARTESIAN_POINT('',(100.,14.8088022903977,39.5285954792088));
#1451=CARTESIAN_POINT('',(100.,0.,1.));
#1452=CARTESIAN_POINT('',(100.,0.,0.));
#1453=CARTESIAN_POINT('',(100.,150.,1.));
#1454=CARTESIAN_POINT('',(100.,0.,1.));
#1455=CARTESIAN_POINT('',(100.,150.,0.));
#1456=CARTESIAN_POINT('Origin',(20.,0.,100.));
#1457=CARTESIAN_POINT('',(20.,1.,100.));
#1458=CARTESIAN_POINT('',(20.,0.,100.));
#1459=CARTESIAN_POINT('',(40.,1.,80.));
#1460=CARTESIAN_POINT('Origin',(39.6464466094067,0.5,79.6464466094067));
#1461=CARTESIAN_POINT('',(19.5857864376269,0.,99.));
#1462=CARTESIAN_POINT('',(18.846663256468,-1.78440120821836,97.2155987917816));
#1463=CARTESIAN_POINT('',(39.2928932188135,0.,79.2928932188135));
#1464=CARTESIAN_POINT('Origin',(47.8349364905389,0.,47.8349364905389));
#1465=CARTESIAN_POINT('',(0.999999999999996,0.,99.));
#1466=CARTESIAN_POINT('',(23.9174682452695,0.,99.));
#1467=CARTESIAN_POINT('',(0.999999999999996,0.,71.4226507738917));
#1468=CARTESIAN_POINT('',(0.999999999999996,0.,59.9174687668101));
#1469=CARTESIAN_POINT('',(-4.33012701892219,0.,74.5000010430813));
#1470=CARTESIAN_POINT('',(0.,0.,72.0000010430813));
#1471=CARTESIAN_POINT('',(-4.33012701892219,0.,65.5000008046627));
#1472=CARTESIAN_POINT('',(-4.33012701892219,0.,74.5000010430813));
#1473=CARTESIAN_POINT('',(0.,0.,68.0000008046627));
#1474=CARTESIAN_POINT('',(0.,0.,68.0000008046627));
#1475=CARTESIAN_POINT('',(0.,0.,52.0000010430813));
#1476=CARTESIAN_POINT('',(0.,0.,52.0000010430813));
#1477=CARTESIAN_POINT('',(-4.33012701892219,0.,54.5000010430813));
#1478=CARTESIAN_POINT('',(0.,0.,52.0000010430813));
#1479=CARTESIAN_POINT('',(-4.33012701892219,0.,45.5000008046627));
#1480=CARTESIAN_POINT('',(-4.33012701892219,0.,54.5000010430813));
#1481=CARTESIAN_POINT('',(0.,0.,48.0000008046627));
#1482=CARTESIAN_POINT('',(0.,0.,48.0000008046627));
#1483=CARTESIAN_POINT('',(0.,0.,32.0000010430813));
#1484=CARTESIAN_POINT('',(0.,0.,32.0000010430813));
#1485=CARTESIAN_POINT('',(-4.33012701892219,0.,34.5000010430813));
#1486=CARTESIAN_POINT('',(0.,0.,32.0000010430813));
#1487=CARTESIAN_POINT('',(-4.33012701892219,0.,25.5000008046627));
#1488=CARTESIAN_POINT('',(-4.33012701892219,0.,34.5000010430813));
#1489=CARTESIAN_POINT('',(0.999999999999996,0.,28.5773510738523));
#1490=CARTESIAN_POINT('',(0.,0.,28.0000008046627));
#1491=CARTESIAN_POINT('',(1.,0.,0.));
#1492=CARTESIAN_POINT('',(0.999999999999996,0.,23.9174682452695));
#1493=CARTESIAN_POINT('',(28.0000001192093,0.,0.));
#1494=CARTESIAN_POINT('',(0.,0.,0.));
#1495=CARTESIAN_POINT('',(25.5000001192093,0.,-4.33012701892219));
#1496=CARTESIAN_POINT('',(28.0000001192093,0.,0.));
#1497=CARTESIAN_POINT('',(34.5000001788139,0.,-4.33012701892219));
#1498=CARTESIAN_POINT('',(25.5000001192093,0.,-4.33012701892219));
#1499=CARTESIAN_POINT('',(32.0000001788139,0.,0.));
#1500=CARTESIAN_POINT('',(32.0000001788139,0.,0.));
#1501=CARTESIAN_POINT('',(48.0000001192093,0.,0.));
#1502=CARTESIAN_POINT('',(32.0000001788139,0.,0.));
#1503=CARTESIAN_POINT('',(45.5000001192093,0.,-4.33012701892219));
#1504=CARTESIAN_POINT('',(48.0000001192093,0.,0.));
#1505=CARTESIAN_POINT('',(54.5000001788139,0.,-4.33012701892219));
#1506=CARTESIAN_POINT('',(45.5000001192093,0.,-4.33012701892219));
#1507=CARTESIAN_POINT('',(52.0000001788139,0.,0.));
#1508=CARTESIAN_POINT('',(52.0000001788139,0.,0.));
#1509=CARTESIAN_POINT('',(68.0000001192093,0.,0.));
#1510=CARTESIAN_POINT('',(52.0000001788139,0.,0.));
#1511=CARTESIAN_POINT('',(65.5000001192093,0.,-4.33012701892219));
#1512=CARTESIAN_POINT('',(68.0000001192093,0.,0.));
#1513=CARTESIAN_POINT('',(74.5000001788139,0.,-4.33012701892219));
#1514=CARTESIAN_POINT('',(65.5000001192093,0.,-4.33012701892219));
#1515=CARTESIAN_POINT('',(72.0000001788139,0.,0.));
#1516=CARTESIAN_POINT('',(72.0000001788139,0.,0.));
#1517=CARTESIAN_POINT('',(99.,0.,0.));
#1518=CARTESIAN_POINT('',(72.0000001788139,0.,0.));
#1519=CARTESIAN_POINT('',(98.4174682452692,0.,-0.582531754730713));
#1520=CARTESIAN_POINT('',(19.,0.,19.));
#1521=CARTESIAN_POINT('',(81.,0.,19.));
#1522=CARTESIAN_POINT('',(33.9174682452695,0.,19.));
#1523=CARTESIAN_POINT('',(19.,0.,81.));
#1524=CARTESIAN_POINT('',(19.,0.,63.9174682452695));
#1525=CARTESIAN_POINT('',(25.4142139349021,0.,81.));
#1526=CARTESIAN_POINT('',(36.417468431534,0.,81.));
#1527=CARTESIAN_POINT('',(81.,0.,25.4142139349021));
#1528=CARTESIAN_POINT('',(66.9571068743188,0.,39.4571070605833));
#1529=CARTESIAN_POINT('',(81.,0.,33.9174682452695));
#1530=CARTESIAN_POINT('Origin',(23.9174682452695,0.5,99.5));
#1531=CARTESIAN_POINT('',(1.,1.,100.));
#1532=CARTESIAN_POINT('',(23.9174682452695,1.,100.));
#1533=CARTESIAN_POINT('',(0.500000000000003,0.499999999999997,99.5));
#1534=CARTESIAN_POINT('',(4.31957804087826,4.31957804087825,103.319578040878));
#1535=CARTESIAN_POINT('',(10.9999999130765,-9.99999991307657,89.0000000869235));
#1536=CARTESIAN_POINT('Origin',(0.5,149.5,59.9174687668101));
#1537=CARTESIAN_POINT('',(0.500000000000012,149.5,99.5));
#1538=CARTESIAN_POINT('',(1.,150.,99.));
#1539=CARTESIAN_POINT('',(10.9999999130766,159.999999913077,89.0000000869234));
#1540=CARTESIAN_POINT('',(1.,150.,71.4226507738917));
#1541=CARTESIAN_POINT('',(1.,150.,59.9174687668101));
#1542=CARTESIAN_POINT('',(0.,149.,72.0000010430813));
#1543=CARTESIAN_POINT('',(-31.4566391635069,117.543360836493,90.1615001319329));
#1544=CARTESIAN_POINT('',(0.,149.,99.));
#1545=CARTESIAN_POINT('',(0.,149.,59.9174687668101));
#1546=CARTESIAN_POINT('',(-31.0137552055317,117.986244794468,67.9862447944684));
#1547=CARTESIAN_POINT('Origin',(0.5,0.,99.5));
#1548=CARTESIAN_POINT('',(0.,1.,99.));
#1549=CARTESIAN_POINT('',(0.,0.,99.));
#1550=CARTESIAN_POINT('',(-6.01375520553163,7.01375520553165,92.9862447944684));
#1551=CARTESIAN_POINT('',(1.,149.,100.));
#1552=CARTESIAN_POINT('',(1.,0.,100.));
#1553=CARTESIAN_POINT('',(29.3195780408783,120.680421959122,128.319578040878));
#1554=CARTESIAN_POINT('Origin',(0.,0.,72.0000010430813));
#1555=CARTESIAN_POINT('',(0.,1.,72.0000010430813));
#1556=CARTESIAN_POINT('',(0.,0.,72.0000010430813));
#1557=CARTESIAN_POINT('',(0.,1.,59.9174687668101));
#1558=CARTESIAN_POINT('Origin',(0.5,149.5,23.9174682452695));
#1559=CARTESIAN_POINT('',(1.,150.,0.));
#1560=CARTESIAN_POINT('',(0.,149.,1.));
#1561=CARTESIAN_POINT('',(-28.3195780408782,120.680421959122,29.3195780408782));
#1562=CARTESIAN_POINT('',(0.,149.,28.0000008046627));
#1563=CARTESIAN_POINT('',(0.,149.,23.9174682452695));
#1564=CARTESIAN_POINT('',(1.,150.,28.5773510738523));
#1565=CARTESIAN_POINT('',(-32.2193681297445,116.780631870256,9.39813994183505));
#1566=CARTESIAN_POINT('',(1.,150.,23.9174682452695));
#1567=CARTESIAN_POINT('Origin',(47.8349364905389,150.,47.8349364905389));
#1568=CARTESIAN_POINT('',(99.,150.,0.));
#1569=CARTESIAN_POINT('',(98.4174682452692,150.,-0.582531754730713));
#1570=CARTESIAN_POINT('',(72.0000001788139,150.,0.));
#1571=CARTESIAN_POINT('',(72.0000001788139,150.,0.));
#1572=CARTESIAN_POINT('',(74.5000001788139,150.,-4.33012701892219));
#1573=CARTESIAN_POINT('',(72.0000001788139,150.,0.));
#1574=CARTESIAN_POINT('',(65.5000001192093,150.,-4.3301270189222));
#1575=CARTESIAN_POINT('',(65.5000001192093,150.,-4.33012701892219));
#1576=CARTESIAN_POINT('',(68.0000001192093,150.,0.));
#1577=CARTESIAN_POINT('',(68.0000001192093,150.,0.));
#1578=CARTESIAN_POINT('',(52.0000001788139,150.,0.));
#1579=CARTESIAN_POINT('',(52.0000001788139,150.,0.));
#1580=CARTESIAN_POINT('',(54.5000001788139,150.,-4.33012701892219));
#1581=CARTESIAN_POINT('',(52.0000001788139,150.,0.));
#1582=CARTESIAN_POINT('',(45.5000001192093,150.,-4.3301270189222));
#1583=CARTESIAN_POINT('',(45.5000001192093,150.,-4.33012701892219));
#1584=CARTESIAN_POINT('',(48.0000001192093,150.,0.));
#1585=CARTESIAN_POINT('',(48.0000001192093,150.,0.));
#1586=CARTESIAN_POINT('',(32.0000001788139,150.,0.));
#1587=CARTESIAN_POINT('',(32.0000001788139,150.,0.));
#1588=CARTESIAN_POINT('',(34.5000001788139,150.,-4.33012701892219));
#1589=CARTESIAN_POINT('',(32.0000001788139,150.,0.));
#1590=CARTESIAN_POINT('',(25.5000001192093,150.,-4.3301270189222));
#1591=CARTESIAN_POINT('',(25.5000001192093,150.,-4.33012701892219));
#1592=CARTESIAN_POINT('',(28.0000001192093,150.,0.));
#1593=CARTESIAN_POINT('',(28.0000001192093,150.,0.));
#1594=CARTESIAN_POINT('',(0.,150.,0.));
#1595=CARTESIAN_POINT('',(-4.33012701892219,150.,25.5000008046627));
#1596=CARTESIAN_POINT('',(0.,150.,28.0000008046627));
#1597=CARTESIAN_POINT('',(-4.33012701892219,150.,34.5000010430813));
#1598=CARTESIAN_POINT('',(-4.33012701892219,150.,34.5000010430813));
#1599=CARTESIAN_POINT('',(0.,150.,32.0000010430813));
#1600=CARTESIAN_POINT('',(0.,150.,32.0000010430813));
#1601=CARTESIAN_POINT('',(0.,150.,48.0000008046627));
#1602=CARTESIAN_POINT('',(0.,150.,32.0000010430813));
#1603=CARTESIAN_POINT('',(-4.33012701892219,150.,45.5000008046627));
#1604=CARTESIAN_POINT('',(0.,150.,48.0000008046627));
#1605=CARTESIAN_POINT('',(-4.33012701892219,150.,54.5000010430813));
#1606=CARTESIAN_POINT('',(-4.33012701892219,150.,54.5000010430813));
#1607=CARTESIAN_POINT('',(0.,150.,52.0000010430813));
#1608=CARTESIAN_POINT('',(0.,150.,52.0000010430813));
#1609=CARTESIAN_POINT('',(0.,150.,68.0000008046627));
#1610=CARTESIAN_POINT('',(0.,150.,52.0000010430813));
#1611=CARTESIAN_POINT('',(-4.33012701892219,150.,65.5000008046627));
#1612=CARTESIAN_POINT('',(0.,150.,68.0000008046627));
#1613=CARTESIAN_POINT('',(-4.33012701892219,150.,74.5000010430813));
#1614=CARTESIAN_POINT('',(-4.33012701892219,150.,74.5000010430813));
#1615=CARTESIAN_POINT('',(0.,150.,72.0000010430813));
#1616=CARTESIAN_POINT('',(23.9174682452695,150.,99.));
#1617=CARTESIAN_POINT('',(25.4142139349021,150.,81.));
#1618=CARTESIAN_POINT('',(81.,150.,25.4142139349021));
#1619=CARTESIAN_POINT('',(66.9571068743188,150.,39.4571070605833));
#1620=CARTESIAN_POINT('',(19.,150.,81.));
#1621=CARTESIAN_POINT('',(36.417468431534,150.,81.));
#1622=CARTESIAN_POINT('',(19.,150.,19.));
#1623=CARTESIAN_POINT('',(19.,150.,63.9174682452695));
#1624=CARTESIAN_POINT('',(81.,150.,19.));
#1625=CARTESIAN_POINT('',(33.9174682452695,150.,19.));
#1626=CARTESIAN_POINT('',(81.,150.,33.9174682452695));
#1627=CARTESIAN_POINT('Origin',(0.499999999999998,0.5,23.9174682452695));
#1628=CARTESIAN_POINT('',(0.,1.,1.));
#1629=CARTESIAN_POINT('',(-3.31957804087823,4.31957804087824,4.31957804087823));
#1630=CARTESIAN_POINT('',(0.,1.,28.0000008046627));
#1631=CARTESIAN_POINT('',(-0.0765109868873787,1.07651098688738,27.9558271657873));
#1632=CARTESIAN_POINT('',(0.,1.,23.9174682452695));
#1633=CARTESIAN_POINT('Origin',(0.,0.,0.));
#1634=CARTESIAN_POINT('',(0.,0.,1.));
#1635=CARTESIAN_POINT('',(0.,0.,28.0000008046627));
#1636=CARTESIAN_POINT('Origin',(0.499999999999998,0.5,59.9174687668101));
#1637=CARTESIAN_POINT('',(0.686217979350269,0.313782020649729,71.6038129079807));
#1638=CARTESIAN_POINT('Origin',(0.,0.,100.));
#1639=CARTESIAN_POINT('',(23.9174682452695,149.,100.));
#1640=CARTESIAN_POINT('Origin',(23.9174682452695,149.5,99.5));
#1641=CARTESIAN_POINT('Origin',(80.5,149.5,33.9174682452695));
#1642=CARTESIAN_POINT('',(80.,149.,20.));
#1643=CARTESIAN_POINT('',(70.3333333333334,139.333333333333,29.6666666666667));
#1644=CARTESIAN_POINT('',(80.,149.,25.000000372529));
#1645=CARTESIAN_POINT('',(80.,149.,33.9174682452695));
#1646=CARTESIAN_POINT('',(79.4564245679246,148.456424567925,24.7748440563905));
#1647=CARTESIAN_POINT('Origin',(80.,0.,20.));
#1648=CARTESIAN_POINT('',(80.,1.,20.));
#1649=CARTESIAN_POINT('',(80.,0.,20.));
#1650=CARTESIAN_POINT('',(80.,1.,25.000000372529));
#1651=CARTESIAN_POINT('',(80.,1.,33.9174682452695));
#1652=CARTESIAN_POINT('',(80.,0.,25.000000372529));
#1653=CARTESIAN_POINT('Origin',(33.9174682452695,149.5,19.5));
#1654=CARTESIAN_POINT('',(20.,149.,20.));
#1655=CARTESIAN_POINT('',(33.9174682452695,149.,20.));
#1656=CARTESIAN_POINT('',(19.,150.,19.));
#1657=CARTESIAN_POINT('Origin',(19.5,149.5,63.9174682452695));
#1658=CARTESIAN_POINT('',(20.,149.,80.));
#1659=CARTESIAN_POINT('',(19.,150.,81.));
#1660=CARTESIAN_POINT('',(20.,149.,63.9174682452695));
#1661=CARTESIAN_POINT('Origin',(36.417468431534,149.5,80.5));
#1662=CARTESIAN_POINT('',(25.000000372529,149.,80.));
#1663=CARTESIAN_POINT('',(25.4142139349021,150.,81.));
#1664=CARTESIAN_POINT('',(36.417468431534,149.,80.));
#1665=CARTESIAN_POINT('Origin',(66.6035534837255,149.5,39.10355366999));
#1666=CARTESIAN_POINT('',(66.2500000931323,149.,38.7500002793968));
#1667=CARTESIAN_POINT('Origin',(20.,0.,20.));
#1668=CARTESIAN_POINT('',(20.,1.,20.));
#1669=CARTESIAN_POINT('',(20.,0.,20.));
#1670=CARTESIAN_POINT('',(33.9174682452695,1.,20.));
#1671=CARTESIAN_POINT('Origin',(20.,0.,80.));
#1672=CARTESIAN_POINT('',(20.,1.,80.));
#1673=CARTESIAN_POINT('',(20.,0.,80.));
#1674=CARTESIAN_POINT('',(20.,1.,63.9174682452695));
#1675=CARTESIAN_POINT('Origin',(25.000000372529,0.,80.));
#1676=CARTESIAN_POINT('',(25.000000372529,1.,80.));
#1677=CARTESIAN_POINT('',(25.000000372529,0.,80.));
#1678=CARTESIAN_POINT('',(36.417468431534,1.,80.));
#1679=CARTESIAN_POINT('Origin',(80.,0.,25.000000372529));
#1680=CARTESIAN_POINT('',(66.2500000931323,1.,38.7500002793968));
#1681=CARTESIAN_POINT('Origin',(36.417468431534,0.5,80.5));
#1682=CARTESIAN_POINT('',(19.,0.,81.));
#1683=CARTESIAN_POINT('',(25.4142139349021,0.,81.));
#1684=CARTESIAN_POINT('Origin',(33.9174682452695,0.5,19.5));
#1685=CARTESIAN_POINT('',(20.,1.,20.));
#1686=CARTESIAN_POINT('',(81.,0.,19.));
#1687=CARTESIAN_POINT('Origin',(19.5,0.5,63.9174682452695));
#1688=CARTESIAN_POINT('Origin',(80.5,0.5,33.9174682452695));
#1689=CARTESIAN_POINT('',(81.,0.,25.4142139349021));
#1690=CARTESIAN_POINT('Origin',(66.6035534837255,0.5,39.10355366999));
#1691=CARTESIAN_POINT('Origin',(99.5,0.,0.5));
#1692=CARTESIAN_POINT('',(99.,0.,0.));
#1693=CARTESIAN_POINT('Origin',(100.,0.,0.));
#1694=CARTESIAN_POINT('',(72.0000001788139,0.,0.));
#1695=CARTESIAN_POINT('Origin',(0.5,0.,0.5));
#1696=CARTESIAN_POINT('',(1.,0.,0.));
#1697=CARTESIAN_POINT('Origin',(68.0000001192093,0.,0.));
#1698=CARTESIAN_POINT('',(52.0000001788139,0.,0.));
#1699=CARTESIAN_POINT('',(68.0000001192093,0.,0.));
#1700=CARTESIAN_POINT('Origin',(65.5000001192093,0.,-4.33012701892219));
#1701=CARTESIAN_POINT('',(65.5000001192093,0.,-4.33012701892219));
#1702=CARTESIAN_POINT('Origin',(74.5000001788139,0.,-4.33012701892219));
#1703=CARTESIAN_POINT('',(74.5000001788139,0.,-4.33012701892219));
#1704=CARTESIAN_POINT('Origin',(72.0000001788139,0.,0.));
#1705=CARTESIAN_POINT('Origin',(-4.33012701892219,0.,74.5000010430813));
#1706=CARTESIAN_POINT('',(-4.33012701892219,0.,74.5000010430813));
#1707=CARTESIAN_POINT('Origin',(-4.33012701892219,0.,65.5000008046627));
#1708=CARTESIAN_POINT('',(-4.33012701892219,0.,65.5000008046627));
#1709=CARTESIAN_POINT('Origin',(0.,0.,68.0000008046627));
#1710=CARTESIAN_POINT('',(0.,0.,68.0000008046627));
#1711=CARTESIAN_POINT('Origin',(0.,0.,52.0000010430813));
#1712=CARTESIAN_POINT('',(0.,0.,52.0000010430813));
#1713=CARTESIAN_POINT('Origin',(-4.33012701892219,0.,54.5000010430813));
#1714=CARTESIAN_POINT('',(-4.33012701892219,0.,54.5000010430813));
#1715=CARTESIAN_POINT('Origin',(-4.33012701892219,0.,45.5000008046627));
#1716=CARTESIAN_POINT('',(-4.33012701892219,0.,45.5000008046627));
#1717=CARTESIAN_POINT('Origin',(0.,0.,48.0000008046627));
#1718=CARTESIAN_POINT('',(0.,0.,48.0000008046627));
#1719=CARTESIAN_POINT('Origin',(0.,0.,32.0000010430813));
#1720=CARTESIAN_POINT('',(0.,0.,32.0000010430813));
#1721=CARTESIAN_POINT('Origin',(-4.33012701892219,0.,34.5000010430813));
#1722=CARTESIAN_POINT('',(-4.33012701892219,0.,34.5000010430813));
#1723=CARTESIAN_POINT('Origin',(-4.33012701892219,0.,25.5000008046627));
#1724=CARTESIAN_POINT('',(-4.33012701892219,0.,25.5000008046627));
#1725=CARTESIAN_POINT('Origin',(0.,0.,28.0000008046627));
#1726=CARTESIAN_POINT('Origin',(28.0000001192093,0.,0.));
#1727=CARTESIAN_POINT('',(28.0000001192093,0.,0.));
#1728=CARTESIAN_POINT('Origin',(25.5000001192093,0.,-4.33012701892219));
#1729=CARTESIAN_POINT('',(25.5000001192093,0.,-4.33012701892219));
#1730=CARTESIAN_POINT('Origin',(34.5000001788139,0.,-4.33012701892219));
#1731=CARTESIAN_POINT('',(34.5000001788139,0.,-4.33012701892219));
#1732=CARTESIAN_POINT('Origin',(32.0000001788139,0.,0.));
#1733=CARTESIAN_POINT('',(32.0000001788139,0.,0.));
#1734=CARTESIAN_POINT('Origin',(48.0000001192093,0.,0.));
#1735=CARTESIAN_POINT('',(48.0000001192093,0.,0.));
#1736=CARTESIAN_POINT('Origin',(45.5000001192093,0.,-4.33012701892219));
#1737=CARTESIAN_POINT('',(45.5000001192093,0.,-4.33012701892219));
#1738=CARTESIAN_POINT('Origin',(54.5000001788139,0.,-4.33012701892219));
#1739=CARTESIAN_POINT('',(54.5000001788139,0.,-4.33012701892219));
#1740=CARTESIAN_POINT('Origin',(52.0000001788139,0.,0.));
#1741=UNCERTAINTY_MEASURE_WITH_UNIT(LENGTH_MEASURE(0.01),#1745,
'DISTANCE_ACCURACY_VALUE',
'Maximum model space distance between geometric entities at asserted c
onnectivities');
#1742=UNCERTAINTY_MEASURE_WITH_UNIT(LENGTH_MEASURE(0.01),#1745,
'DISTANCE_ACCURACY_VALUE',
'Maximum model space distance between geometric entities at asserted c
onnectivities');
#1743=(
GEOMETRIC_REPRESENTATION_CONTEXT(3)
GLOBAL_UNCERTAINTY_ASSIGNED_CONTEXT((#1741))
GLOBAL_UNIT_ASSIGNED_CONTEXT((#1745,#1747,#1748))
REPRESENTATION_CONTEXT('','3D')
);
#1744=(
GEOMETRIC_REPRESENTATION_CONTEXT(3)
GLOBAL_UNCERTAINTY_ASSIGNED_CONTEXT((#1742))
GLOBAL_UNIT_ASSIGNED_CONTEXT((#1745,#1747,#1748))
REPRESENTATION_CONTEXT('','3D')
);
#1745=(
LENGTH_UNIT()
NAMED_UNIT(*)
SI_UNIT(.MILLI.,.METRE.)
);
#1746=(
LENGTH_UNIT()
NAMED_UNIT(*)
SI_UNIT($,.METRE.)
);
#1747=(
NAMED_UNIT(*)
PLANE_ANGLE_UNIT()
SI_UNIT($,.RADIAN.)
);
#1748=(
NAMED_UNIT(*)
SI_UNIT($,.STERADIAN.)
SOLID_ANGLE_UNIT()
);
#1749=SHAPE_DEFINITION_REPRESENTATION(#1750,#1751);
#1750=PRODUCT_DEFINITION_SHAPE('',$,#1753);
#1751=SHAPE_REPRESENTATION('',(#1111),#1743);
#1752=PRODUCT_DEFINITION_CONTEXT('part definition',#1757,'design');
#1753=PRODUCT_DEFINITION('LED Corner','LED Corner v8',#1754,#1752);
#1754=PRODUCT_DEFINITION_FORMATION('',$,#1759);
#1755=PRODUCT_RELATED_PRODUCT_CATEGORY('LED Corner v8','LED Corner v8',
(#1759));
#1756=APPLICATION_PROTOCOL_DEFINITION('international standard',
'automotive_design',2009,#1757);
#1757=APPLICATION_CONTEXT(
'Core Data for Automotive Mechanical Design Process');
#1758=PRODUCT_CONTEXT('part definition',#1757,'mechanical');
#1759=PRODUCT('LED Corner','LED Corner v8',$,(#1758));
#1760=PRESENTATION_STYLE_ASSIGNMENT((#1761));
#1761=SURFACE_STYLE_USAGE(.BOTH.,#1762);
#1762=SURFACE_SIDE_STYLE('',(#1763));
#1763=SURFACE_STYLE_FILL_AREA(#1764);
#1764=FILL_AREA_STYLE('Steel - Satin',(#1765));
#1765=FILL_AREA_STYLE_COLOUR('Steel - Satin',#1766);
#1766=COLOUR_RGB('Steel - Satin',0.627450980392157,0.627450980392157,0.627450980392157);
ENDSEC;
END-ISO-10303-21;
